<?xml version="1.0" encoding="utf-8"?>
<!-- Generator: Adobe Illustrator 23.1.1, SVG Export Plug-In . SVG Version: 6.00 Build 0)  -->
<svg version="1.1" id="Layer_1" xmlns="http://www.w3.org/2000/svg" xmlns:xlink="http://www.w3.org/1999/xlink" x="0px" y="0px"
	 viewBox="0 0 160.91 59.63" style="enable-background:new 0 0 160.91 59.63;" xml:space="preserve">
<style type="text/css">
	.st0{fill:#FFFFFF;}
</style>
<rect x="4.87" y="6.89" class="st0" width="1.51" height="45.17"/>
<path class="st0" d="M22.98,43.12c-0.36-1.82-1.82-2.74-3.6-2.74c-3.06,0-4.36,2.52-4.36,5.21c0,2.94,1.3,5.39,4.38,5.39
	c2.25,0,3.55-1.58,3.71-3.71h1.71c-0.32,3.21-2.32,5.15-5.57,5.15c-4,0-5.94-2.95-5.94-6.7c0-3.73,2.13-6.77,6.09-6.77
	c2.68,0,4.9,1.44,5.3,4.18H22.98z"/>
<path class="st0" d="M30.31,42.58c2.95,0,4.52,2.14,4.52,4.88c0,2.72-1.57,4.86-4.52,4.86c-2.95,0-4.52-2.14-4.52-4.86
	C25.79,44.72,27.35,42.58,30.31,42.58 M30.31,50.97c1.6,0,2.9-1.26,2.9-3.51c0-2.27-1.3-3.53-2.9-3.53c-1.6,0-2.9,1.26-2.9,3.53
	C27.41,49.71,28.71,50.97,30.31,50.97"/>
<path class="st0" d="M36.21,42.79h1.44v1.37h0.04c0.68-1.04,1.73-1.58,3.01-1.58c1.14,0,2.18,0.45,2.56,1.58
	c0.63-0.99,1.73-1.58,2.92-1.58c1.86,0,3.1,0.77,3.1,2.7v6.83h-1.53V46c0-1.15-0.31-2.07-1.8-2.07c-1.48,0-2.43,0.94-2.43,2.38v5.8
	h-1.53V46c0-1.21-0.38-2.07-1.75-2.07c-1.82,0-2.49,1.68-2.49,2.38v5.8h-1.53V42.79z"/>
<path class="st0" d="M51.17,42.79h1.53v1.26h0.04c0.5-1.03,1.69-1.48,2.97-1.48c2.86,0,4.29,2.27,4.29,4.9
	c0,2.63-1.4,4.85-4.25,4.85c-0.95,0-2.32-0.36-3.01-1.46H52.7v4.81h-1.53V42.79z M55.49,43.93c-2.05,0-2.85,1.77-2.85,3.51
	c0,1.84,0.83,3.53,2.94,3.53c2.09,0,2.79-1.78,2.79-3.6C58.37,45.62,57.47,43.93,55.49,43.93"/>
<path class="st0" d="M69.59,52.07c-0.27,0.16-0.61,0.25-1.1,0.25c-0.79,0-1.3-0.43-1.3-1.44c-0.85,0.99-1.98,1.44-3.28,1.44
	c-1.69,0-3.08-0.76-3.08-2.61c0-2.11,1.57-2.56,3.15-2.86c1.69-0.32,3.13-0.22,3.13-1.37c0-1.33-1.1-1.55-2.07-1.55
	c-1.3,0-2.25,0.4-2.32,1.77h-1.53c0.09-2.31,1.87-3.12,3.94-3.12c1.68,0,3.49,0.38,3.49,2.56v4.79c0,0.72,0,1.05,0.49,1.05
	c0.13,0,0.27-0.02,0.47-0.09V52.07z M67.1,47.3c-0.59,0.43-1.75,0.45-2.77,0.63c-1.01,0.18-1.87,0.54-1.87,1.67
	c0,1.01,0.86,1.37,1.8,1.37c2.02,0,2.85-1.26,2.85-2.11V47.3z"/>
<path class="st0" d="M70.65,42.79h1.44v1.48h0.04c0.65-1.15,1.69-1.69,3.03-1.69c2.45,0,3.21,1.4,3.21,3.4v6.12h-1.53v-6.3
	c0-1.13-0.72-1.87-1.89-1.87c-1.85,0-2.76,1.24-2.76,2.92v5.26h-1.53V42.79z"/>
<path class="st0" d="M81.78,41.12h-1.53v-1.87h1.53V41.12z M80.25,42.79h1.53v9.31h-1.53V42.79z"/>
<path class="st0" d="M91.64,49.15c-0.41,2.05-1.89,3.17-3.98,3.17c-2.97,0-4.38-2.05-4.47-4.9c0-2.79,1.84-4.84,4.38-4.84
	c3.3,0,4.31,3.08,4.21,5.33h-6.97c-0.05,1.62,0.87,3.06,2.9,3.06c1.26,0,2.14-0.61,2.41-1.82H91.64z M90.17,46.56
	c-0.07-1.46-1.17-2.63-2.68-2.63c-1.6,0-2.56,1.21-2.67,2.63H90.17z"/>
<path class="st0" d="M94.02,49.17c0.05,1.37,1.24,1.8,2.5,1.8c0.96,0,2.25-0.22,2.25-1.39c0-1.19-1.51-1.39-3.04-1.73
	c-1.51-0.34-3.04-0.85-3.04-2.63c0-1.87,1.86-2.65,3.48-2.65c2.05,0,3.69,0.65,3.82,2.92h-1.53c-0.11-1.19-1.15-1.57-2.16-1.57
	c-0.92,0-1.98,0.25-1.98,1.19c0,1.1,1.62,1.28,3.04,1.62c1.53,0.34,3.04,0.85,3.04,2.65c0,2.22-2.07,2.94-3.96,2.94
	c-2.09,0-3.85-0.85-3.94-3.15H94.02z"/>
<polygon class="st0" points="106.99,39.24 108.7,39.24 108.7,44.77 115.47,44.77 115.47,39.24 117.18,39.24 117.18,52.11 
	115.47,52.11 115.47,46.22 108.7,46.22 108.7,52.11 106.99,52.11 "/>
<path class="st0" d="M123.34,42.58c2.95,0,4.52,2.14,4.52,4.88c0,2.72-1.57,4.86-4.52,4.86c-2.95,0-4.52-2.14-4.52-4.86
	C118.81,44.72,120.38,42.58,123.34,42.58 M123.34,50.97c1.6,0,2.9-1.26,2.9-3.51c0-2.27-1.3-3.53-2.9-3.53c-1.6,0-2.9,1.26-2.9,3.53
	C120.44,49.71,121.73,50.97,123.34,50.97"/>
<path class="st0" d="M136.91,52.11h-1.44v-1.48h-0.04c-0.65,1.15-1.69,1.69-3.03,1.69c-2.45,0-3.21-1.4-3.21-3.4v-6.12h1.53v6.3
	c0,1.14,0.72,1.87,1.89,1.87c1.85,0,2.76-1.24,2.76-2.92v-5.26h1.53V52.11z"/>
<path class="st0" d="M139.78,49.17c0.05,1.37,1.24,1.8,2.5,1.8c0.96,0,2.25-0.22,2.25-1.39c0-1.19-1.51-1.39-3.04-1.73
	c-1.51-0.34-3.04-0.85-3.04-2.63c0-1.87,1.86-2.65,3.48-2.65c2.05,0,3.69,0.65,3.82,2.92h-1.53c-0.11-1.19-1.15-1.57-2.16-1.57
	c-0.92,0-1.98,0.25-1.98,1.19c0,1.1,1.62,1.28,3.04,1.62c1.53,0.34,3.04,0.85,3.04,2.65c0,2.22-2.07,2.94-3.96,2.94
	c-2.09,0-3.85-0.85-3.94-3.15H139.78z"/>
<path class="st0" d="M155.39,49.15c-0.41,2.05-1.89,3.17-3.98,3.17c-2.97,0-4.38-2.05-4.47-4.9c0-2.79,1.84-4.84,4.38-4.84
	c3.3,0,4.31,3.08,4.21,5.33h-6.97c-0.05,1.62,0.87,3.06,2.9,3.06c1.26,0,2.14-0.61,2.41-1.82H155.39z M153.91,46.56
	c-0.07-1.46-1.17-2.63-2.68-2.63c-1.6,0-2.56,1.21-2.67,2.63H153.91z"/>
<path class="st0" d="M25.97,11.45c-0.15,0.28-0.27,0.45-0.25,0.66c0.02,0.22,0.25,0.37,0.36,0.59c0.1-0.25,0.26-0.45,0.24-0.64
	C26.29,11.86,26.02,11.6,25.97,11.45"/>
<path class="st0" d="M29.74,11.45c0.15,0.28,0.27,0.45,0.25,0.66c-0.02,0.22-0.25,0.37-0.36,0.59c-0.1-0.25-0.26-0.45-0.24-0.64
	C29.42,11.86,29.7,11.6,29.74,11.45"/>
<path class="st0" d="M23.8,11.29c0.14,0,0.25-0.11,0.25-0.25c0-0.14-0.11-0.26-0.25-0.26c-0.14,0-0.26,0.11-0.26,0.26
	C23.54,11.18,23.66,11.29,23.8,11.29"/>
<path class="st0" d="M23.97,11.66c0-0.14-0.12-0.26-0.26-0.26c-0.14,0-0.25,0.11-0.25,0.26c0,0.14,0.11,0.26,0.25,0.26
	C23.85,11.91,23.97,11.8,23.97,11.66"/>
<path class="st0" d="M24.09,12.27c0-0.14-0.12-0.25-0.26-0.25c-0.14,0-0.25,0.11-0.25,0.25c0,0.14,0.11,0.25,0.25,0.25
	C23.98,12.53,24.09,12.42,24.09,12.27"/>
<path class="st0" d="M25.21,10.08c0.14,0,0.25-0.11,0.25-0.25c0-0.14-0.11-0.26-0.25-0.26c-0.14,0-0.26,0.11-0.26,0.26
	C24.96,9.96,25.07,10.08,25.21,10.08"/>
<path class="st0" d="M24.58,10.27c0.14,0,0.25-0.11,0.25-0.25c0-0.14-0.11-0.26-0.25-0.26c-0.14,0-0.26,0.11-0.26,0.26
	C24.32,10.16,24.43,10.27,24.58,10.27"/>
<path class="st0" d="M24.08,10.71c0.14,0,0.25-0.11,0.25-0.25c0-0.14-0.11-0.26-0.25-0.26c-0.14,0-0.26,0.11-0.26,0.26
	C23.82,10.59,23.94,10.71,24.08,10.71"/>
<path class="st0" d="M25.88,10.14c0.14,0,0.25-0.11,0.25-0.25c0-0.14-0.11-0.25-0.25-0.25c-0.14,0-0.26,0.11-0.26,0.25
	C25.62,10.02,25.74,10.14,25.88,10.14"/>
<path class="st0" d="M26.51,10.32c0.14,0,0.25-0.11,0.25-0.26c0-0.14-0.11-0.25-0.25-0.25c-0.14,0-0.26,0.11-0.26,0.25
	C26.25,10.21,26.37,10.32,26.51,10.32"/>
<path class="st0" d="M27.1,10.6c0.14,0,0.25-0.11,0.25-0.26c0-0.14-0.11-0.26-0.25-0.26c-0.14,0-0.26,0.11-0.26,0.26
	C26.85,10.49,26.96,10.6,27.1,10.6"/>
<path class="st0" d="M31.65,11.04c0,0.14,0.11,0.26,0.25,0.26c0.14,0,0.25-0.11,0.25-0.26c0-0.14-0.11-0.25-0.25-0.25
	C31.77,10.78,31.65,10.9,31.65,11.04"/>
<path class="st0" d="M31.99,11.4c-0.14,0-0.26,0.11-0.26,0.26c0,0.14,0.11,0.26,0.26,0.26c0.14,0,0.26-0.11,0.26-0.26
	C32.25,11.51,32.14,11.4,31.99,11.4"/>
<path class="st0" d="M31.87,12.02c-0.14,0-0.26,0.11-0.26,0.26c0,0.14,0.11,0.26,0.26,0.26c0.14,0,0.26-0.11,0.26-0.26
	C32.12,12.13,32.01,12.02,31.87,12.02"/>
<path class="st0" d="M30.5,10.08c0.14,0,0.26-0.11,0.26-0.25c0-0.14-0.11-0.26-0.26-0.26c-0.14,0-0.26,0.11-0.26,0.26
	C30.24,9.96,30.36,10.08,30.5,10.08"/>
<path class="st0" d="M31.13,10.27c0.14,0,0.25-0.11,0.25-0.25c0-0.14-0.11-0.26-0.25-0.26c-0.14,0-0.26,0.11-0.26,0.26
	C30.88,10.16,30.99,10.27,31.13,10.27"/>
<path class="st0" d="M31.63,10.71c0.14,0,0.25-0.11,0.25-0.25c0-0.14-0.11-0.26-0.25-0.26c-0.14,0-0.26,0.11-0.26,0.26
	C31.37,10.59,31.49,10.71,31.63,10.71"/>
<path class="st0" d="M29.83,10.14c0.14,0,0.25-0.11,0.25-0.25c0-0.14-0.11-0.25-0.25-0.25c-0.14,0-0.26,0.11-0.26,0.25
	C29.58,10.02,29.69,10.14,29.83,10.14"/>
<path class="st0" d="M29.2,10.32c0.14,0,0.25-0.11,0.25-0.26c0-0.14-0.11-0.25-0.25-0.25c-0.14,0-0.26,0.11-0.26,0.25
	C28.94,10.21,29.06,10.32,29.2,10.32"/>
<path class="st0" d="M28.35,10.34c0,0.14,0.11,0.26,0.25,0.26s0.25-0.11,0.25-0.26c0-0.14-0.11-0.26-0.25-0.26
	S28.35,10.2,28.35,10.34"/>
<path class="st0" d="M27.42,11.72h0.28v-1.09c-0.1-0.02-0.2-0.05-0.28-0.09V11.72z"/>
<path class="st0" d="M28.29,10.54c-0.09,0.04-0.19,0.07-0.29,0.09v1.09h0.29V10.54z"/>
<path class="st0" d="M27.69,9.34V8.69c-0.32,0.07-0.57,0.32-0.63,0.65H27.69z"/>
<path class="st0" d="M28.02,9.34h0.62c-0.06-0.32-0.3-0.58-0.62-0.65V9.34z"/>
<path class="st0" d="M27.07,9.65c0.08,0.36,0.4,0.63,0.78,0.63c0.38,0,0.7-0.27,0.78-0.63H27.07z"/>
<path class="st0" d="M28.29,8.59c-0.18-0.14-0.32-0.35-0.35-0.56c0.21,0.04,0.44,0.19,0.58,0.37V7.51
	c-0.14,0.18-0.37,0.33-0.58,0.37c0.02-0.21,0.16-0.41,0.33-0.63h-0.85c0.18,0.22,0.31,0.42,0.33,0.63
	c-0.21-0.04-0.44-0.19-0.58-0.37v0.88c0.14-0.18,0.37-0.33,0.58-0.37c-0.03,0.22-0.17,0.42-0.35,0.56H28.29z"/>
<path class="st0" d="M28.32,26.89c-0.17,0-0.31-0.14-0.31-0.31c0-0.17,0.14-0.31,0.31-0.31c0.17,0,0.31,0.14,0.31,0.31
	C28.63,26.75,28.49,26.89,28.32,26.89 M26.81,26.43c-0.19,0-0.34-0.15-0.34-0.34c0-0.19,0.15-0.34,0.34-0.34
	c0.19,0,0.34,0.15,0.34,0.34C27.15,26.27,27,26.43,26.81,26.43 M26.29,24.9l-0.08-0.06c-0.15-0.12-0.29-0.12-0.43,0.01
	c-0.07,0.06-0.13,0.13-0.18,0.2l-0.09,0.1l0.06,0.05c0.17,0.13,0.19,0.27,0.14,0.36c-0.02,0.03-0.05,0.05-0.09,0.07
	c-0.08,0.02-0.2-0.01-0.31-0.08l-0.06-0.04l-0.04,0.06c-0.01,0.02-0.02,0.03-0.03,0.04c-0.01,0.02-0.03,0.04-0.04,0.07
	c-0.07,0.12-0.1,0.22-0.1,0.29c0,0.02,0,0.04,0.01,0.06c0.03,0.09,0.1,0.13,0.16,0.17l0.04,0.02c0.07,0.05,0.18,0.11,0.26,0.15
	c-0.15,0.08-0.29,0.09-0.44,0.02c-0.22-0.11-0.36-0.36-0.36-0.48c0-0.19,0.08-0.43,0.24-0.68l0.02-0.04l-0.02-0.04
	c-0.05-0.08-0.08-0.15-0.11-0.22c0.08,0.01,0.16,0.03,0.25,0.05l0.04,0.01l0.03-0.03c0.1-0.1,0.43-0.45,0.75-0.45
	c0.14,0,0.29,0.07,0.4,0.2c0.08,0.09,0.13,0.2,0.15,0.31C26.39,24.97,26.34,24.94,26.29,24.9 M29.23,26.11
	c-0.8-0.2-1.76-0.54-2.65-0.95l0-0.01c0.03-0.18-0.04-0.38-0.18-0.54c-0.14-0.16-0.32-0.25-0.51-0.25c-0.08,0-0.16,0.02-0.24,0.05
	c-0.13-0.12-0.25-0.24-0.37-0.38c-0.34-0.4-0.6-0.86-0.79-1.37c-0.11-0.29-0.18-0.6-0.23-0.91c-0.04,0.26-0.34,0.6-0.84,0.61
	c0.01-0.05,0-0.18-0.04-0.2c-0.13,0.15-0.33,0.31-0.78,0.15c0.07,0.35,0.17,0.7,0.29,1.04c0.27,0.73,0.66,1.38,1.15,1.93
	c0.16,0.19,0.33,0.36,0.51,0.52c0,0.03-0.01,0.07-0.01,0.1c0,0.19,0.18,0.49,0.44,0.61c0.21,0.1,0.44,0.08,0.65-0.07
	c0.39,0.21,0.89,0.4,1.42,0.55c0.6,0.17,1.18,0.26,1.64,0.26c0.39,0,0.91-0.19,1.42-0.51c0.2-0.13,0.39-0.27,0.54-0.41
	c0.02-0.02,0.04-0.04,0.06-0.05C30.32,26.34,29.72,26.23,29.23,26.11"/>
<path class="st0" d="M29.01,29.36c-0.06-0.11-0.14-0.17-0.21-0.17c-0.33,0-0.2,0.86-0.59,0.86c-0.17,0-0.26-0.11-0.26-0.23
	c0-0.12,0.08-0.16,0.08-0.26c0-0.1-0.08-0.13-0.16-0.13c-0.08,0-0.16,0.03-0.16,0.13c0,0.1,0.09,0.13,0.09,0.26
	c0,0.12-0.09,0.23-0.26,0.23c-0.39,0-0.26-0.86-0.59-0.86c-0.07,0-0.16,0.06-0.21,0.17c-0.07-0.12-0.1-0.25-0.1-0.34
	c0-0.16,0.12-0.38,0.38-0.38c0.44,0,0.34,0.6,0.54,0.6c0.09,0,0.16-0.06,0.16-0.15c0-0.17-0.3-0.33-0.3-0.58
	c0-0.24,0.22-0.45,0.47-0.64c0.24,0.2,0.47,0.4,0.47,0.64c0,0.24-0.31,0.41-0.31,0.58c0,0.09,0.07,0.15,0.16,0.15
	c0.21,0,0.11-0.6,0.55-0.6c0.26,0,0.38,0.22,0.38,0.38C29.11,29.11,29.07,29.24,29.01,29.36 M27.86,30.57
	c-0.12,0-0.21-0.1-0.21-0.21c0-0.12,0.1-0.21,0.21-0.21c0.12,0,0.21,0.09,0.21,0.21C28.08,30.48,27.98,30.57,27.86,30.57
	 M28.73,28.48c-0.06,0-0.11,0.01-0.16,0.02v-0.96c-0.42-0.01-0.91-0.08-1.4-0.21v1.17c-0.05-0.02-0.11-0.03-0.17-0.03
	c-0.34,0-0.55,0.28-0.55,0.55c0,0.25,0.15,0.48,0.27,0.62c0.06-0.15,0.12-0.27,0.2-0.27c0.17,0,0.09,0.83,0.58,0.86
	c-0.02,0.04-0.02,0.09-0.02,0.13c0,0.21,0.17,0.38,0.38,0.38s0.38-0.17,0.38-0.38c0-0.05-0.01-0.09-0.02-0.13
	c0.49-0.02,0.41-0.86,0.57-0.86c0.08,0,0.14,0.11,0.21,0.27c0.13-0.14,0.27-0.37,0.27-0.62C29.28,28.76,29.07,28.48,28.73,28.48"/>
<path class="st0" d="M40.01,29.63c-0.02-0.05-0.07-0.08-0.12-0.06c-1.12,0.33-2.52-0.6-3.87-1.5c-1.14-0.76-2.21-1.47-3.13-1.47
	c-0.34,0-0.64,0.07-0.9,0.21c-0.32,0.18-0.56,0.46-0.72,0.83c-0.15,0.38-0.32,0.63-0.45,0.84c-0.16,0.25-0.27,0.42-0.27,0.65
	c0,0.18,0.08,0.35,0.23,0.5c0.13,0.13,0.32,0.26,0.59,0.4c0.06,0.03,0.11,0.06,0.17,0.08c0.22,0.11,0.36,0.18,0.39,0.31
	c-0.44,0.2-1.02,0.36-1.67,0.47c-0.74,0.13-1.55,0.2-2.4,0.2c-0.86,0-1.66-0.07-2.4-0.2c-0.65-0.11-1.23-0.28-1.68-0.47
	c0.02-0.19,0.16-0.26,0.4-0.38c0.06-0.03,0.11-0.05,0.18-0.09c0.22-0.12,0.43-0.23,0.58-0.36c0.16-0.14,0.23-0.29,0.23-0.47
	c0-0.22-0.11-0.4-0.27-0.65c-0.13-0.21-0.29-0.46-0.45-0.84c-0.15-0.37-0.39-0.65-0.72-0.83c-0.26-0.14-0.56-0.21-0.9-0.21
	c-0.92,0-1.99,0.71-3.13,1.47c-1.35,0.9-2.75,1.83-3.87,1.5c-0.05-0.02-0.11,0.01-0.12,0.06c-0.02,0.05,0.01,0.11,0.06,0.13
	c0.34,0.15,0.64,0.39,0.94,0.61c0.4,0.32,0.79,0.61,1.21,0.61c0.4,0,0.83-0.13,1.35-0.4c0.45-0.24,0.92-0.56,1.38-0.87
	c0.89-0.61,1.81-1.23,2.68-1.3c-0.09,0.09-0.18,0.17-0.26,0.25c-0.26,0.23-0.48,0.43-0.48,0.83c0,0.32,0.11,0.54,0.26,0.86
	c0.04,0.09,0.09,0.19,0.15,0.31c0.1,0.21,0.14,0.39,0.2,0.63c0.03,0.1,0.05,0.22,0.09,0.35c0.06,0.21,0.16,0.59,0.8,0.92
	c0.74,0.38,2.02,0.57,3.8,0.57c1.78,0,3.05-0.19,3.79-0.57c0.64-0.33,0.74-0.71,0.8-0.92c0.04-0.14,0.07-0.25,0.09-0.35
	c0.06-0.24,0.1-0.41,0.2-0.63c0.07-0.16,0.14-0.29,0.2-0.4c0.13-0.25,0.24-0.45,0.24-0.74c0-0.4-0.23-0.61-0.5-0.86
	c-0.09-0.08-0.18-0.16-0.27-0.26c0.87,0.07,1.79,0.7,2.68,1.3c0.45,0.31,0.92,0.63,1.38,0.87c0.52,0.27,0.95,0.4,1.35,0.4
	c0.42,0,0.8-0.3,1.21-0.62c0.29-0.23,0.59-0.46,0.93-0.61C40,29.74,40.03,29.68,40.01,29.63"/>
<path class="st0" d="M28.01,20.9v-4.22c0.44,0.02,0.87,0.13,1.27,0.33c0.44,0.22,0.83,0.52,1.16,0.92c0.34,0.4,0.6,0.86,0.79,1.37
	c0.18,0.51,0.28,1.05,0.29,1.61H28.01z M27.86,14.92c-1.2,0-2.02,0.35-2.5,0.67c-0.28-0.16-0.4-0.33-0.4-0.52
	c0-0.68,1.92-0.74,2.9-0.74h0c0.97,0,2.9,0.06,2.9,0.74c0,0.19-0.12,0.35-0.4,0.52C29.88,15.27,29.06,14.92,27.86,14.92 M27.8,20.9
	h-3.59c0.01-0.56,0.1-1.1,0.29-1.61c0.18-0.51,0.45-0.97,0.79-1.37c0.34-0.39,0.73-0.7,1.16-0.92c0.43-0.21,0.89-0.32,1.36-0.33
	V20.9z M33.25,20.63c-0.12-0.09-0.33-0.28-0.43-0.5c-0.13-0.28-0.69-1.37-0.78-1.52c-0.07-0.12-0.11-0.23-0.11-0.33
	c0-0.12,0.06-0.21,0.12-0.29c0.04-0.06,0.17-0.17,0.21-0.24c0.04-0.06,0.07-0.1,0.1-0.13c-0.2-0.35-0.41-0.62-0.68-0.92
	c-0.33-0.37-0.69-0.68-1.09-0.94c0.21-0.14,0.43-0.34,0.43-0.67c0-0.2-0.08-0.35-0.22-0.48c0.22-0.72,0.63-1.59,0.97-1.97l-0.72-0.3
	c0.19,0.29,0.2,0.62,0.16,0.82c-0.19-0.13-0.35-0.31-0.4-0.55c-0.04,0.22-0.16,0.57-0.27,0.79c0.21-0.1,0.38-0.14,0.59-0.05
	c-0.12,0.16-0.43,0.42-0.91,0.3c-0.26-0.06-0.51-0.2-0.5-0.4c0.01-0.12,0.09-0.26,0.25-0.24c0.16,0.02,0.17,0.26,0.12,0.36
	c0.21-0.12,0.42-0.72,0.1-0.81c-0.25-0.07-0.49,0.28-0.57,0.55c-0.05-0.32-0.18-0.63-0.44-0.61c-0.33,0.02-0.22,0.64-0.11,0.79
	c0.02-0.22,0.14-0.33,0.24-0.32c0.09,0.01,0.21,0.07,0.19,0.26c-0.02,0.2-0.3,0.32-0.62,0.32c-0.31,0-0.84-0.09-0.89-0.68
	c0.2,0.04,0.51,0.19,0.64,0.38c-0.04-0.36-0.04-0.61,0-0.98c-0.16,0.23-0.44,0.35-0.63,0.38c0.06-0.25,0.27-0.52,0.53-0.68H27.2
	c0.25,0.16,0.47,0.42,0.53,0.68c-0.19-0.03-0.46-0.15-0.62-0.38c0.04,0.37,0.04,0.62,0,0.98c0.13-0.2,0.43-0.34,0.63-0.38
	c-0.05,0.59-0.59,0.68-0.89,0.68c-0.32,0-0.6-0.12-0.62-0.32c-0.02-0.2,0.1-0.26,0.19-0.26c0.1-0.01,0.22,0.11,0.24,0.32
	c0.12-0.16,0.22-0.77-0.11-0.79c-0.26-0.02-0.39,0.29-0.44,0.61c-0.08-0.27-0.32-0.62-0.57-0.55c-0.32,0.09-0.11,0.7,0.1,0.81
	c-0.05-0.11-0.04-0.35,0.12-0.36c0.16-0.02,0.25,0.13,0.25,0.24c0.01,0.2-0.24,0.34-0.5,0.4c-0.47,0.11-0.78-0.14-0.91-0.3
	c0.22-0.09,0.39-0.05,0.6,0.05c-0.11-0.21-0.23-0.57-0.27-0.79c-0.06,0.24-0.22,0.42-0.41,0.55c-0.04-0.2-0.03-0.53,0.16-0.82
	l-0.72,0.3c0.34,0.38,0.75,1.25,0.97,1.98c-0.14,0.12-0.22,0.28-0.22,0.47c0,0.33,0.22,0.54,0.43,0.67
	c-0.4,0.26-0.76,0.58-1.09,0.94c-0.49,0.55-0.88,1.2-1.15,1.92c0.1,0.1,0.53,0.58,0.63,0.7c0.18,0.23,0.29,0.46,0.29,0.63
	c0.01,0.33,0.08,0.46,0.25,0.68c0.05,0.07,0.13,0.33,0.14,0.48h3.59v3.91c-0.14,0.01-0.29,0.04-0.41,0.19
	c0.42,0.17,0.81,0.32,1.21,0.44c0.04-0.26,0.09-0.42,0.22-0.57c0,0-0.52-0.05-0.8-0.07v-3.9h3.51c-0.01,0.54-0.11,1.06-0.29,1.55
	c-0.18,0.51-0.45,0.97-0.79,1.37c-0.34,0.4-0.73,0.7-1.16,0.92c-0.07,0.03-0.07,0.08-0.14,0.11c-0.06,0.07-0.12,0.18-0.17,0.32
	c-0.04,0.12-0.06,0.2-0.08,0.36c0.16,0.05,0.25,0.08,0.41,0.12c1.23,0.31,1.54,0.22,1.61,0.16l0,0c0.28-0.21,0.53-0.45,0.77-0.73
	c0.49-0.56,0.88-1.21,1.15-1.94c0.28-0.75,0.42-1.55,0.42-2.37C33.26,20.83,33.26,20.78,33.25,20.63"/>
<path class="st0" d="M29.97,18.39c-0.03,0.03-0.04,0.07-0.03,0.1c0.01,0.03,0.04,0.07,0.11,0.07c-0.04,0.03-0.07,0.08-0.08,0.15
	c0.07,0.01,0.12-0.01,0.16-0.04c-0.01,0.06,0.01,0.1,0.04,0.12c0.02,0.02,0.06,0.02,0.1,0c0.26,0.43,0.45,0.92,0.52,1.42
	c-0.03-0.02-0.08-0.04-0.13-0.04c0,0.07,0.03,0.13,0.07,0.16h-0.88c0.01-0.05-0.02-0.1-0.06-0.12c-0.04-0.01-0.08-0.01-0.12,0.04
	c0-0.05-0.02-0.1-0.07-0.15c-0.05,0.05-0.07,0.1-0.07,0.15c-0.04-0.05-0.08-0.05-0.12-0.04c-0.04,0.01-0.06,0.06-0.06,0.12h-0.75
	c0.03-0.04,0.05-0.09,0.05-0.15c-0.07,0-0.11,0.02-0.15,0.05v-1.21c0.06,0.01,0.11-0.02,0.12-0.06c0.01-0.04,0.01-0.08-0.04-0.12
	c0.05,0,0.11-0.02,0.16-0.07c-0.05-0.05-0.1-0.07-0.16-0.07c0.05-0.04,0.06-0.08,0.04-0.12c-0.01-0.04-0.06-0.07-0.12-0.06v-1.03
	c0.03,0.03,0.08,0.05,0.13,0.05c0-0.06-0.01-0.11-0.04-0.15c0.23,0.08,0.46,0.19,0.68,0.33C29.53,17.93,29.77,18.14,29.97,18.39
	 M30.96,20.21c0.06,0.04,0.04,0.14-0.04,0.13c-0.08-0.64-0.31-1.26-0.67-1.78c0,0,0.01-0.01,0.01-0.01
	c0.07-0.02,0.13-0.08,0.15-0.18c-0.11-0.01-0.19,0.04-0.23,0.1c-0.02-0.03-0.05-0.07-0.08-0.1c-0.22-0.28-0.48-0.52-0.76-0.71
	c-0.27-0.18-0.55-0.31-0.85-0.39c0.01-0.07,0.1-0.08,0.13-0.02c0.01-0.11-0.09-0.17-0.14-0.14c-0.03,0.01-0.06,0.04-0.06,0.09
	c-0.03-0.04-0.08-0.08-0.16-0.08c0,0.07,0.02,0.13,0.05,0.17c-0.05,0-0.08,0.02-0.09,0.05c-0.03,0.05,0.01,0.16,0.12,0.16
	c-0.05-0.04-0.03-0.13,0.04-0.12v1.37c-0.07-0.02-0.15-0.01-0.23,0.06c0.08,0.07,0.16,0.08,0.23,0.06v1.49
	c-0.07,0.01-0.09-0.09-0.03-0.13c-0.11,0-0.16,0.1-0.13,0.15c0.02,0.03,0.05,0.06,0.11,0.05c-0.03,0.04-0.06,0.09-0.06,0.16
	c0.07,0,0.12-0.03,0.16-0.06c-0.01,0.06,0.02,0.1,0.06,0.11c0.05,0.02,0.15-0.02,0.15-0.13c-0.04,0.06-0.13,0.04-0.13-0.03h1.03
	c-0.02,0.07-0.01,0.15,0.06,0.23c0.07-0.08,0.08-0.16,0.06-0.23h1.15c0,0.07-0.08,0.09-0.13,0.04c0,0.11,0.1,0.16,0.15,0.13
	c0.03-0.02,0.06-0.05,0.05-0.11c0.04,0.03,0.09,0.06,0.16,0.06c0-0.07-0.03-0.12-0.06-0.16c0.06,0,0.1-0.02,0.11-0.06
	C31.12,20.31,31.08,20.21,30.96,20.21"/>
<path class="st0" d="M30.35,19.83c0.04-0.02,0.08-0.05,0.1-0.09c-0.05,0.02-0.09-0.01-0.1-0.01c0.04-0.02,0.08,0,0.04-0.06
	c-0.04-0.07-0.07-0.07-0.11-0.02c-0.04,0.04-0.32-0.01-0.32-0.22c0.02,0.04,0.06,0.06,0.1,0.08c0.01,0.01,0.02,0.01,0.03,0.02
	c0.01,0,0.02,0,0.04,0.01c0.03,0.01,0.06,0.01,0.08,0.01c0.01,0,0.01,0,0.02,0v-0.01c0.06-0.01,0.1-0.05,0.11-0.11
	c0.01-0.12-0.1-0.17-0.22-0.27c-0.05-0.04-0.08-0.07-0.11-0.1c-0.04-0.08-0.01-0.16-0.12-0.31c-0.01-0.04-0.01-0.08-0.03-0.13
	c-0.06,0.1-0.08,0.29,0.07,0.44c0.12,0.13,0.36,0.25,0.36,0.36c0,0.03-0.03,0.05-0.06,0.05c-0.01,0-0.02,0-0.03,0
	c-0.01,0-0.01,0-0.02-0.01c-0.02-0.01-0.03-0.01-0.05-0.02c-0.03-0.02-0.06-0.03-0.09-0.07c-0.1-0.1-0.2-0.24-0.26-0.32
	c-0.12-0.15-0.06-0.29-0.04-0.41c0.08-0.11-0.05-0.34-0.13-0.4c0,0,0.02-0.05,0-0.12c-0.01,0.01-0.05,0.01-0.07,0.01
	c-0.02-0.04-0.03-0.05-0.06-0.06c-0.05-0.01-0.05-0.04-0.05-0.05c-0.03,0.03-0.04,0.05-0.07,0.05c-0.04,0-0.06,0-0.07,0.01
	c-0.03,0.02-0.04,0.03-0.09,0.03c-0.05,0-0.05,0.03-0.04,0.06c0,0.02,0.01,0.05,0.03,0.07c0,0,0.01,0.01,0.01,0.01l0.04,0.04
	l0.03-0.05c0.02-0.02,0.08-0.02,0.09,0.02c0.01,0.03,0.01,0.04-0.02,0.04c-0.04,0.01-0.06,0.01-0.1,0.01
	c-0.03,0-0.03,0.03-0.03,0.06c0,0.03,0.03,0.04,0.09,0.03c0.06-0.01,0.15-0.02,0.15,0.02c0,0.12-0.14,0.12-0.17,0.27
	c-0.04-0.02-0.07-0.05-0.09-0.08c-0.02-0.04-0.06-0.08-0.1-0.13c-0.03-0.03-0.07-0.06-0.11-0.09c-0.05-0.03-0.05-0.05-0.05-0.1
	c0-0.04,0.02-0.08,0.02-0.13c0,0-0.01-0.03-0.01-0.04c-0.01-0.03-0.05-0.05-0.07-0.04c0.01,0.01,0.02,0.02,0.03,0.04
	c-0.01,0.01-0.02,0.02-0.02,0.02c-0.01,0.01-0.01,0.03,0,0.04c0,0,0,0,0,0.01c0,0.01,0,0.01,0,0.02c0,0.01,0,0-0.01,0
	c-0.01-0.03-0.03-0.08-0.05-0.08c0,0-0.01,0-0.02,0c0,0,0,0,0-0.01c0-0.03-0.04-0.06-0.07-0.02c0.01,0,0.02,0,0.03,0.01
	c0,0.01-0.01,0.03-0.01,0.03c0,0.03,0.02,0.05,0.06,0.05c0.01,0,0.01,0,0.01,0.01c0,0,0,0.01,0,0.01c0,0.01,0,0-0.01,0
	c-0.06-0.02-0.08,0-0.08,0.03c0,0,0,0.02,0,0.02c-0.02,0.01-0.03,0.04,0.01,0.07c0-0.01,0-0.03,0.01-0.04c0,0,0.01,0,0.01,0
	c0.01,0.01,0.01,0.01,0.02,0.01c0,0,0.01,0,0.03-0.01c0,0,0.01,0,0.01,0c0,0.01,0.01,0.01,0.02,0.01c0,0,0,0.01,0,0.01
	c-0.04,0.04-0.03,0.07,0.01,0.08c-0.02,0.04-0.09,0.02-0.08-0.04c-0.05,0.08,0.03,0.13,0.1,0.11c0,0.03,0,0.08,0.01,0.08
	c0,0,0-0.01,0.01-0.01c0.01,0,0.01,0,0.01,0.01c0,0.02,0.01,0.04,0.03,0.04c0-0.01,0-0.02,0.01-0.02c0.01,0.02,0.02,0.04,0.03,0.05
	c0.03,0.06,0.1,0.21,0.25,0.27c-0.08,0.04-0.13,0.11-0.17,0.17c-0.04,0.04-0.1,0.08-0.14,0.06c-0.02-0.01-0.02-0.03-0.04-0.04
	c-0.02-0.01-0.04-0.02-0.05-0.01c0,0-0.01,0.01-0.02,0.01c-0.03-0.01-0.07,0-0.08,0.02c0.01,0,0.03-0.01,0.05,0.01
	c0,0.01,0,0.03,0,0.03c0,0.02,0.01,0.04,0.09,0.03c0,0,0.01,0,0.01,0.01c-0.01,0.01-0.02,0.02-0.04,0.01
	c-0.03-0.01-0.05-0.04-0.08-0.01c0,0-0.01,0.01-0.02,0.02c0,0,0,0-0.01,0c-0.03,0.01-0.06,0.07-0.02,0.09c0-0.01,0-0.03,0.02-0.05
	c0.01,0.01,0.01,0.02,0.02,0.02c0.02,0.03,0.05,0.05,0.1-0.03c0.01-0.01,0.01,0,0.01,0c0,0.04-0.04,0.09,0.01,0.09
	c0,0,0.01,0,0.02,0c0,0,0,0.01,0,0.01c0.01,0.04,0.06,0.05,0.09,0.04c-0.01-0.01-0.04-0.02-0.05-0.05c0.01,0,0.02,0,0.02,0
	c0.03-0.03,0-0.06,0.01-0.08c0-0.01,0.01-0.01,0.01,0c0.01,0.02,0.03,0.05,0.07,0.03c0.02-0.01,0.03-0.03,0.03-0.05
	c0.05-0.02,0.1-0.04,0.14-0.03c-0.01-0.03,0.02-0.07,0.08-0.08c0.05-0.02,0.08,0,0.1,0.02c0.01-0.02,0.03-0.06,0.06-0.1
	c-0.01,0.22,0.29,0.21,0.36,0.35c-0.09-0.04-0.19-0.06-0.24-0.05c-0.07,0.01-0.2,0.08-0.21,0.16c-0.01,0.07,0.06,0.19,0.13,0.23
	c-0.09,0.02-0.12-0.01-0.19,0.01c0,0-0.01,0-0.01,0c-0.07,0.01-0.08-0.11-0.16-0.08c0,0-0.02,0.01-0.02,0.01h0
	c-0.03,0-0.07,0.04-0.07,0.07c0.01-0.01,0.03-0.02,0.05-0.03c0,0.01,0,0.02,0,0.02c0,0.01,0,0.03,0.03,0.03
	c0.02,0,0.02-0.01,0.03-0.01c0.01,0,0.01,0,0.01,0.01c0,0.03-0.1-0.02-0.08,0.07c0,0,0.01,0.02,0.02,0.02
	c0,0.03,0.02,0.05,0.06,0.04c-0.01-0.01-0.03-0.02-0.02-0.03c0.01,0,0.02,0,0.02,0c0.01,0,0.01,0,0.01-0.01c0,0,0,0,0.01,0
	c0,0,0.01,0.01,0.01,0.01c0,0-0.01,0.01-0.01,0.02c0,0,0,0.02,0.01,0.03c0,0.03,0.04,0.06,0.08,0.03c-0.01,0-0.04-0.01-0.04-0.02
	c0.01,0,0.02-0.01,0.02-0.01c0.01,0,0.01-0.02,0.01-0.03c0-0.01,0-0.01,0.01-0.01c0.01,0,0.01,0,0.02,0c0.01,0,0.01,0,0.01,0.01
	c0.01,0.02,0.03,0.04,0.06,0.03c0.02-0.01,0.02-0.02,0.03-0.02c0.01,0.01,0.02,0.01,0.04,0.02c-0.01-0.03,0.01-0.06,0.08-0.01
	l0.05-0.04c0,0,0.07,0.03,0.09,0c0.04-0.04,0.02-0.04,0.02-0.07c-0.03-0.07-0.04-0.06-0.06-0.12c-0.02-0.11,0.13-0.17,0.22-0.15
	c0.02,0.07,0.12,0.25,0.28,0.31c0.1,0.03,0.14-0.08,0.18-0.06c0.01,0,0.01,0.01,0.02,0.03c-0.01,0.05,0,0.09-0.01,0.12
	c-0.01,0.02-0.06,0-0.1,0c-0.02,0-0.04,0.01-0.04,0.02c-0.03,0.01-0.07,0.03-0.07,0.07c0.01-0.01,0.03-0.03,0.06-0.03
	c0,0.01,0,0.01,0,0.01c0,0.04,0.05,0.06,0.08,0.03c0-0.01,0.02,0,0.01,0.01c-0.02,0.02-0.07,0.06-0.03,0.08c0,0,0.01,0.01,0.02,0.01
	c0,0.03,0.02,0.05,0.04,0.06c-0.01-0.01-0.01-0.02,0-0.05c0.01,0,0.02,0,0.02,0c0.03,0,0.02-0.05,0.05-0.07c0,0,0.01,0,0.01,0
	c-0.01,0.03-0.02,0.07,0.01,0.08c0,0,0.01,0,0.02,0.01c0.01,0.02,0.04,0.04,0.08,0.02c-0.01-0.01-0.03-0.01-0.04-0.03
	c0.01-0.01,0.02-0.02,0.02-0.03c0.02-0.07-0.04-0.07-0.04-0.09c0-0.03,0.07-0.01,0.07-0.08c0,0,0-0.01,0-0.01
	c0.03-0.02,0.06-0.04,0.07-0.06C30.39,19.85,30.35,19.84,30.35,19.83L30.35,19.83z"/>
<path class="st0" d="M27.08,21.79l-0.05,0c-0.06,0-0.13,0.02-0.13,0.1C26.89,21.96,26.95,22,27.02,22l0.04,0
	c0,0.02,0,0.03-0.01,0.05c-0.02,0.11-0.04,0.28-0.08,0.49l-0.54-0.77c0.25-0.1,0.45-0.21,0.56-0.21
	C27.08,21.57,27.1,21.61,27.08,21.79 M26.88,23.12l-0.84-1.21c0.09-0.02,0.18-0.05,0.27-0.08l0.63,0.91
	C26.92,22.86,26.9,22.99,26.88,23.12 M26.79,23.66l-1.2-1.72c0.04,0,0.08,0,0.11,0c0.06,0,0.12,0,0.18-0.01l0.96,1.38
	C26.83,23.44,26.81,23.57,26.79,23.66 M25.44,21.96l1.31,1.89C26.05,23.57,25.35,22.94,25.44,21.96 M27.39,21.81l-0.06,0l0-0.06
	c0.01-0.21-0.12-0.37-0.34-0.37c-0.2,0-0.59,0.26-1.14,0.26c-0.23,0-0.51-0.11-0.68-0.21l-0.07,0.16c0-0.01,0-0.01,0-0.02
	c0-0.07-0.06-0.14-0.13-0.14c-0.07,0-0.14,0.06-0.14,0.14c0,0.07,0.06,0.13,0.14,0.13c0.04,0,0.08-0.02,0.11-0.05l-0.07,0.16
	c0.02,0.01,0.05,0.02,0.07,0.03c-0.08,0.83,0.53,1.88,1.61,2.2c0.16-0.04,0.32-0.02,0.32,0.16c0,0.11-0.06,0.15-0.15,0.15
	c-0.06,0-0.1-0.04-0.1-0.08c0-0.07,0.13-0.03,0.14-0.08c0.02-0.07-0.03-0.1-0.1-0.1c-0.08,0-0.19,0.05-0.19,0.17
	c0,0.15,0.12,0.24,0.25,0.24c0.12,0,0.37-0.07,0.34-0.36c0.06,0,0.12-0.01,0.14-0.06l0.01-0.17l-0.06-0.01l0.04-1.89l0.04,0
	c0.07,0.01,0.13-0.03,0.14-0.1C27.51,21.85,27.45,21.82,27.39,21.81"/>
<path class="st0" d="M26.43,17.81c0.01-0.01,0.01-0.03,0.02-0.03c0.01,0,0.02,0,0.03-0.02c0.01-0.02-0.01-0.02-0.02-0.03
	c0.02,0,0.02-0.01,0.01-0.02c-0.01-0.01-0.03,0.01-0.03,0c0-0.01,0.01-0.01,0.01-0.02c0.01-0.01,0.01-0.01,0.02,0l0.07,0.03
	c0.01,0,0.01,0.01,0.01,0.02c0,0.01,0,0.02,0,0.02c-0.01,0-0.01-0.02-0.02-0.02c-0.01,0-0.01,0.01,0,0.03
	c-0.02-0.01-0.03-0.01-0.04,0c-0.01,0.01,0,0.02,0.01,0.03c0.01,0.01,0,0.02-0.01,0.03c0,0.01-0.02,0.04-0.05,0.02
	C26.42,17.85,26.43,17.83,26.43,17.81 M26.51,17.64c-0.01,0.02-0.04,0.04-0.05,0.02c-0.02-0.02,0-0.02-0.02-0.06
	C26.46,17.61,26.5,17.64,26.51,17.64 M26.56,17.66c0.01,0.01,0.06,0.03,0.08,0.03c-0.04,0.01-0.03,0.03-0.05,0.02
	C26.57,17.72,26.56,17.69,26.56,17.66 M26.38,17.71C26.38,17.71,26.38,17.71,26.38,17.71C26.38,17.71,26.38,17.71,26.38,17.71
	 M27.16,18c0.26,0,0.38-0.08,0.38-0.16c0-0.28-0.7-0.11-0.7-0.28c0-0.03,0.02-0.05,0.05-0.08h0.01c0.35-0.03,0.36-0.28,0.61-0.32
	c-0.3-0.04-0.35,0.2-0.48,0.21c0.07-0.03,0.09-0.11,0.09-0.15c-0.06,0.08-0.2,0.09-0.28,0.19c-0.01,0.01-0.02,0.03-0.01,0.05
	c-0.05,0.03-0.07,0.06-0.07,0.1c0,0.27,0.71,0.08,0.71,0.28c0,0.07-0.12,0.11-0.32,0.11c-0.15,0-0.25-0.11-0.53-0.04
	c0-0.04,0.09-0.13,0.06-0.17c0.03-0.01,0.05-0.03,0.05-0.05c-0.02-0.02-0.04-0.02-0.05-0.02c0.01-0.01,0-0.03-0.01-0.04
	c0,0-0.01-0.03-0.01-0.04c-0.01-0.01-0.03-0.03-0.06-0.04c-0.03-0.02-0.05-0.02-0.06-0.02c-0.01,0-0.04,0.01-0.04,0.01
	c-0.02,0-0.03,0-0.04,0.02c-0.01-0.01-0.03-0.02-0.05-0.02c-0.01,0.02-0.01,0.04-0.01,0.08c-0.03,0-0.05,0.07-0.08,0.06
	c0.01,0.02,0.02,0.03,0.02,0.03c-0.02,0.04-0.03,0.08-0.05,0.09c0.01,0.01,0.01,0.02,0.02,0.02c-0.02,0.06-0.03,0.13-0.04,0.16
	c-0.01-0.01-0.03-0.03-0.06-0.04c-0.04-0.02-0.04-0.04-0.03-0.08c0-0.04,0.03-0.07,0.03-0.1c0,0,0-0.02-0.01-0.03
	c-0.01-0.02-0.04-0.04-0.06-0.04c0.01,0.01,0.02,0.01,0.02,0.04c-0.01,0.01-0.02,0.02-0.02,0.02c-0.01,0.01-0.02,0.02,0,0.04
	c0,0,0,0,0,0.01c0,0.01,0,0.01,0,0.02c0,0.01,0,0,0,0c-0.01-0.03-0.01-0.06-0.04-0.07c0,0-0.01,0-0.02,0c0,0,0,0,0-0.01
	c0-0.03-0.02-0.05-0.07-0.02c0.01,0,0.02,0,0.03,0.01c-0.01,0.01-0.01,0.02-0.01,0.03c0,0.03,0.01,0.04,0.05,0.04
	c0.01,0,0.01,0,0.01,0c0,0,0,0.01,0,0.01c0,0.01,0,0.01,0,0c-0.05-0.02-0.07,0-0.08,0.02c0,0,0,0.01,0,0.02
	c-0.02,0.01-0.03,0.03,0,0.05c0-0.01,0-0.03,0.02-0.03c0,0,0.01,0,0.01,0c0,0.01,0.01,0.01,0.01,0.01c0,0,0.01,0,0.03-0.01
	c0,0,0.01,0,0.01,0c0,0,0.01,0.01,0.01,0.01c0,0,0,0,0,0.01c-0.04,0.03-0.04,0.06,0.01,0.07c0.01,0,0.01,0,0.01,0.01
	c-0.01,0.06-0.1,0.05-0.08-0.01c-0.06,0.07,0.02,0.11,0.08,0.08c0,0,0.01,0,0.01,0c0,0.01,0.01,0.02,0.02,0.02c0,0,0-0.01,0.01-0.01
	c0,0,0,0,0,0.01c0,0.01,0,0.04,0.03,0.04c0-0.01,0-0.02,0.01-0.02c0.01,0,0.03,0.05,0.06,0.09c-0.06,0.03-0.15,0.05-0.16,0.05
	c-0.01,0-0.1-0.01-0.12,0.01c-0.04,0.02-0.14,0.06-0.17,0.02c-0.01-0.01-0.01-0.03-0.02-0.05c-0.01-0.01-0.02-0.02-0.03-0.03
	c0,0-0.01,0-0.03,0c-0.02-0.02-0.05-0.02-0.07-0.01c0.01,0,0.03,0.01,0.04,0.03c0,0.01-0.01,0.02-0.01,0.02
	c-0.01,0.01,0,0.03,0.06,0.05c0,0,0.01,0.01,0,0.01c-0.01,0-0.02,0.01-0.04,0c-0.02-0.02-0.03-0.05-0.06-0.03c0,0-0.01,0-0.02,0.01
	c0,0,0,0-0.01,0c-0.03,0-0.07,0.03-0.05,0.06c0-0.01,0.01-0.02,0.03-0.03c0,0.01,0.01,0.02,0.01,0.02c0.01,0.03,0.02,0.06,0.09,0.01
	c0.01-0.01,0.01,0,0,0c-0.01,0.03-0.06,0.05-0.03,0.08c0,0,0.01,0.01,0.02,0.01c0,0,0,0,0,0.01c-0.01,0.04,0.03,0.06,0.06,0.06
	c-0.01-0.01-0.03-0.03-0.02-0.05c0.01,0,0.02,0.01,0.02,0.01c0.03-0.01,0.02-0.05,0.03-0.06c0-0.01,0.01,0,0.01,0
	c0,0.02,0.01,0.05,0.05,0.05c0.03-0.01,0.05-0.03,0.05-0.05c0,0,0-0.01,0,0c0.01,0.01,0.02,0.02,0.02,0.04
	c0.01,0,0.02-0.01,0.03-0.03c0.01,0.02,0.01,0.04-0.01,0.07c0.01-0.01,0.05-0.02,0.06-0.06C26,18.33,26,18.34,26,18.35c0,0,0,0,0,0
	c0.01,0,0.04,0.01,0.08,0c0,0,0,0,0,0.01c0,0.02,0,0.03,0,0.04c0-0.01,0.01-0.02,0.01-0.02c0.01,0,0,0.04,0.02,0.06
	c0.01-0.09,0.06-0.06,0.12-0.1c0.01-0.01,0.01,0,0.01,0c0,0.01-0.01,0.02-0.03,0.03c0.02,0,0.07-0.02,0.07-0.06
	c0-0.01,0.02-0.02,0.04-0.03c0.02,0.01,0.06-0.01,0.07-0.03c0,0.01,0.01,0.04,0,0.05c0.06,0,0.13-0.07,0.15-0.07
	c0.13-0.03-0.08-0.12,0.19-0.11c0.02,0,0.06-0.01,0.08-0.03c-0.02,0.04-0.02,0.12,0.02,0.13c0.02,0,0.06,0.02,0.07,0.03
	c0,0,0,0,0,0.01c-0.02,0-0.05,0.01-0.06,0.02c-0.07,0.04-0.07-0.1-0.13-0.07c0,0-0.01,0.01-0.02,0.01c-0.03,0-0.06,0.03-0.06,0.06
	c0.01-0.01,0.02-0.02,0.04-0.02c0,0,0,0.01,0,0.01c0,0.01,0,0.02,0.03,0.02c0.01,0,0.02-0.01,0.03-0.01c0.01,0,0.01,0,0.01,0.01
	c0,0.03-0.08-0.02-0.07,0.06c0,0,0.01,0.02,0.01,0.02c0,0.02,0.01,0.04,0.05,0.03c-0.01-0.01-0.02-0.01-0.02-0.03
	c0.01,0,0.01,0,0.02,0c0,0,0.01,0,0.01-0.01c0,0,0,0,0,0c0.01,0,0.01,0,0.01,0.01c0,0.01-0.01,0.01-0.01,0.02
	c0,0,0.01,0.02,0.01,0.02c0,0.03,0.03,0.05,0.07,0.03c-0.01,0-0.03-0.01-0.04-0.02c0.01,0,0.02-0.01,0.02-0.01
	c0.01,0,0.01-0.01,0.01-0.03c0-0.01,0-0.01,0.01-0.01c0.01,0,0.01,0,0.02,0c0.01,0,0.01,0,0.01,0.01c0.01,0.02,0.03,0.03,0.05,0.02
	c0.05-0.02,0.01-0.05,0.04-0.06c0.01,0,0.02,0,0.03,0c0.04,0.01,0.09,0.01,0.1-0.01c0.01-0.02,0-0.08-0.03-0.11
	c-0.02-0.01,0-0.04-0.02-0.07c0.04,0.02,0.08,0.03,0.14,0.03c0.1,0,0-0.01,0.05-0.04c0.05-0.03,0.1-0.02,0.12-0.01
	c0.01,0,0.02,0.01,0.02,0.02c-0.01,0.05,0.01,0.06-0.01,0.08c-0.01,0.02-0.05,0-0.08,0c-0.02,0-0.03,0.01-0.03,0.01
	c-0.03,0.01-0.05,0.03-0.05,0.06c0.01-0.01,0.02-0.02,0.04-0.02c0,0,0,0.01,0,0.01c0,0.04,0.04,0.05,0.06,0.02c0,0,0.01,0,0.01,0.01
	c-0.02,0.02-0.06,0.05-0.03,0.06c0,0,0.01,0,0.02,0.01c0,0.02,0.01,0.04,0.03,0.05c-0.01-0.01-0.01-0.02,0-0.04
	c0.01,0,0.02,0,0.02,0c0.02,0,0.01-0.04,0.04-0.06c0,0,0.01,0,0,0c-0.01,0.03-0.01,0.05,0.01,0.06c0,0,0.01,0,0.02,0
	c0.01,0.02,0.03,0.03,0.06,0.02c-0.01,0-0.02-0.01-0.03-0.02c0.01-0.01,0.01-0.02,0.02-0.02c0.01-0.05-0.03-0.05-0.03-0.07
	c0-0.03,0.05-0.01,0.05-0.06c0-0.01,0-0.02-0.02-0.03c0,0,0,0,0,0c0.01,0,0.03,0,0.04-0.02c-0.04,0-0.03-0.03-0.03-0.05
	c0,0,0-0.01,0-0.01c0.01-0.01,0.02-0.02,0.02-0.06c-0.01,0.02-0.06,0.04-0.06,0c0,0,0-0.03-0.04-0.02
	C27.32,18.05,27.29,18.02,27.16,18C27.16,18,27.15,18,27.16,18"/>
<path class="st0" d="M26.01,19.35C26.01,19.35,26.01,19.35,26.01,19.35C26.01,19.35,26.01,19.35,26.01,19.35 M25.8,18.91
	c0.01-0.02,0.02-0.03,0.03-0.03c0.02,0,0.03,0,0.03-0.02c0.01-0.02-0.01-0.03-0.03-0.04c0.02,0,0.03-0.01,0.02-0.02
	c-0.01-0.01-0.03,0.01-0.03,0c0-0.01,0.01-0.02,0.01-0.02c0.01-0.01,0.01-0.01,0.03,0l0.08,0.04c0.01,0.01,0.02,0.01,0.02,0.02
	c0,0.01,0,0.02-0.01,0.03c-0.01,0-0.01-0.03-0.02-0.03c-0.01,0-0.01,0.01-0.01,0.03c-0.02-0.01-0.04-0.02-0.05,0
	c-0.01,0.02,0,0.03,0.01,0.04c0.01,0.01,0,0.02-0.01,0.04c-0.01,0.02-0.03,0.04-0.06,0.03C25.79,18.96,25.79,18.93,25.8,18.91
	 M25.89,18.71c-0.01,0.02-0.04,0.04-0.06,0.02c-0.02-0.02,0-0.03-0.02-0.07C25.83,18.68,25.88,18.7,25.89,18.71 M25.95,18.74
	c0.01,0.01,0.07,0.03,0.1,0.04c-0.05,0.01-0.03,0.03-0.06,0.03C25.96,18.8,25.95,18.76,25.95,18.74 M25.56,19.1
	C25.55,19.09,25.55,19.09,25.56,19.1C25.56,19.09,25.56,19.1,25.56,19.1 M27.52,18.95c0-0.08-0.09-0.13-0.34-0.13
	c-0.25,0-0.82,0.09-0.82-0.05c0-0.07,0.11-0.06,0.24-0.06c0.01,0.01,0.03,0.02,0.05,0.03c0.32,0.09,0.71-0.08,0.9-0.02
	c-0.23-0.17-0.42,0.01-0.67-0.05c0.14,0,0.19-0.04,0.2-0.08c-0.11,0.07-0.32-0.04-0.46,0.04c-0.01,0.01-0.01,0.01-0.02,0.02
	c-0.18,0-0.32,0-0.32,0.11c0,0.25,0.67,0.1,0.88,0.1s0.25,0.02,0.25,0.06c0,0.06-0.21,0.08-0.33,0.08c-0.18,0-0.73-0.1-1.07-0.03
	c0.03-0.05,0.09-0.12,0.06-0.16c0.03-0.01,0.05-0.04,0.05-0.06c-0.02-0.02-0.04-0.02-0.06-0.03c0.01-0.01,0-0.03-0.02-0.04
	c0-0.01-0.01-0.04-0.02-0.04c-0.01-0.01-0.04-0.03-0.07-0.05c-0.04-0.02-0.06-0.02-0.08-0.02c-0.01,0-0.04,0.01-0.04,0.01
	c-0.02,0-0.04,0-0.04,0.02c-0.01-0.01-0.04-0.02-0.06-0.02c-0.01,0.03-0.02,0.05-0.01,0.09c-0.03,0-0.06,0.08-0.09,0.07
	c0.01,0.02,0.02,0.03,0.03,0.03c-0.02,0.04-0.04,0.1-0.06,0.1c0.02,0.03,0.03,0.04,0.04,0.04c0,0.03,0,0.07-0.01,0.1l-0.05-0.02
	c-0.01,0-0.01,0-0.01,0c-0.01,0-0.01,0-0.02-0.01c0.01,0,0.02,0,0.02,0.01l-0.03-0.01c-0.03-0.02-0.06-0.07-0.11-0.09
	c-0.05-0.03-0.05-0.05-0.05-0.1c0-0.04,0.02-0.08,0.02-0.12c0-0.01-0.01-0.03-0.01-0.04c0-0.03-0.04-0.05-0.06-0.04
	c0.01,0.01,0.02,0.02,0.03,0.04c-0.01,0.01-0.02,0.02-0.02,0.02c-0.01,0.01-0.01,0.03,0,0.04c0,0,0,0.01,0,0.01c0,0,0,0.01,0,0.02
	c0,0.01,0,0,0,0c-0.01-0.03-0.02-0.08-0.05-0.08c0,0-0.02,0-0.02,0c0,0,0,0,0-0.01c0-0.03-0.03-0.06-0.07-0.02
	c0.01,0,0.02,0,0.03,0.01c-0.01,0.01-0.01,0.03-0.01,0.03c0,0.03,0.02,0.04,0.05,0.04c0.01,0,0.01,0,0.01,0.01c0,0,0,0.01,0,0.02
	c0,0.01,0,0.01-0.01,0c-0.06-0.03-0.08,0-0.08,0.03c0,0,0,0.02,0,0.02c-0.02,0.02-0.03,0.04,0.01,0.07c0-0.01,0-0.03,0.01-0.04
	c0,0,0.01,0,0.01,0c0,0.01,0.01,0.01,0.01,0.01c0,0,0.01,0,0.03-0.01c0,0,0.01,0,0.01,0c0,0,0.01,0.01,0.02,0.01c0,0,0,0.01,0,0.01
	c-0.04,0.04-0.04,0.07,0.01,0.08c0.01,0,0.01,0.01,0.01,0.01c-0.01,0.07-0.1,0.06-0.09-0.01c-0.06,0.08,0.03,0.14,0.1,0.1
	c0,0,0.01,0,0.01,0c0,0.01,0.01,0.02,0.02,0.03c0,0,0-0.02,0.02-0.02c0,0,0,0,0,0.01c0,0.02,0.01,0.04,0.03,0.05
	c0-0.01,0-0.03,0.01-0.03c0.01,0,0.04,0.05,0.1,0.09c0.05,0.02,0.08,0.07,0.11,0.04c-0.01,0.05,0.04,0.1,0.03,0.1
	c-0.01,0-0.14-0.01-0.18,0.01c-0.05,0.03-0.17,0.07-0.2,0.02c-0.01-0.02-0.01-0.03-0.02-0.06c-0.01-0.02-0.03-0.03-0.04-0.03
	c0,0-0.01,0-0.03,0c-0.02-0.02-0.06-0.02-0.08-0.01c0.01,0,0.03,0.01,0.04,0.03c-0.01,0.01-0.01,0.02-0.01,0.02
	c-0.01,0.01,0,0.04,0.07,0.07c0,0,0.01,0.01,0,0.01c-0.01,0.01-0.03,0.01-0.04-0.01c-0.03-0.02-0.03-0.05-0.07-0.03
	c0,0-0.01,0.01-0.02,0.01c0,0-0.01,0-0.01,0c-0.03,0-0.08,0.04-0.06,0.07c0-0.01,0.02-0.03,0.04-0.03c0,0.01,0.01,0.02,0.01,0.02
	c0.01,0.04,0.02,0.07,0.1,0.02c0.01-0.01,0.01,0,0.01,0c-0.02,0.03-0.07,0.06-0.03,0.09c0,0,0.01,0.01,0.02,0.01c0,0,0,0.01,0,0.01
	c-0.01,0.04,0.04,0.08,0.06,0.07c-0.01-0.01-0.03-0.03-0.02-0.07c0.01,0,0.02,0.01,0.02,0.01c0.04-0.01,0.02-0.06,0.04-0.07
	c0.01-0.01,0.01,0,0.01,0c0,0.02,0.01,0.06,0.06,0.06c0.04,0,0.06-0.04,0.06-0.06c0,0,0-0.01,0,0c0.01,0.01,0.03,0.03,0.02,0.05
	c0.01,0,0.02-0.02,0.03-0.03c0.01,0.02,0.01,0.05-0.02,0.08c0.02-0.01,0.06-0.03,0.07-0.07c0.01,0.01,0.01,0.02,0.02,0.02
	c0,0,0,0,0,0c0.01,0.01,0.04,0.01,0.09,0c0,0,0.01,0,0.01,0c0,0.02,0,0.04,0,0.04c0-0.01,0.01-0.02,0.02-0.02
	c0.01,0,0,0.04,0.03,0.07c0.01-0.11,0.07-0.07,0.14-0.11c0.01-0.01,0.01,0,0.01,0c0,0.01-0.01,0.03-0.03,0.04
	c0.08,0.02,0.2-0.1,0.21-0.15c0.03,0,0.06-0.01,0.07-0.01c0.22,0.02,0.07-0.2,0.42-0.14c0.02,0,0.07-0.02,0.08-0.04
	c-0.03,0.04-0.03,0.14,0.02,0.15c0.02,0,0.07,0.02,0.08,0.04c0,0,0,0.01,0,0.01c-0.03,0-0.06,0.01-0.07,0.02
	c-0.07,0.05-0.08-0.11-0.16-0.08c0,0-0.02,0.01-0.02,0.02c-0.03,0-0.07,0.04-0.07,0.07c0.01-0.01,0.03-0.03,0.05-0.03
	c0,0.01,0,0.02,0,0.02c0,0.01,0,0.03,0.03,0.03c0.01,0,0.02-0.01,0.03-0.01c0.01,0,0.01,0,0.01,0.01c0,0.03-0.1-0.02-0.08,0.07
	c0,0,0.01,0.02,0.01,0.03c0,0.03,0.02,0.05,0.06,0.04c-0.01-0.01-0.02-0.02-0.02-0.03c0.01,0,0.02,0,0.02,0c0,0,0.01,0,0.01-0.01
	c0,0,0,0,0,0c0,0,0.01,0,0.01,0.01c0,0.01,0,0.01,0,0.02c0,0,0,0.02,0.01,0.03c0,0.03,0.04,0.06,0.08,0.03
	c-0.01,0-0.04-0.01-0.04-0.02c0.01,0,0.02-0.01,0.02-0.01c0.01,0,0.01-0.02,0.01-0.03c0-0.01,0-0.01,0.01-0.01c0.01,0,0.01,0,0.02,0
	c0.01,0,0.01,0,0.01,0.01c0.01,0.02,0.03,0.04,0.06,0.03c0.05-0.02,0.01-0.07,0.05-0.08c0.01,0,0.02,0,0.03,0
	c0.04,0.01,0.11,0.01,0.12-0.01c0.01-0.02,0-0.1-0.04-0.12c-0.03-0.01,0-0.04-0.02-0.08c0.05,0.02,0.1,0.04,0.16,0.04
	c0.12,0,0.14-0.02,0.2-0.05c0.06-0.04,0.12-0.02,0.14-0.01c0.01,0,0.03,0.01,0.02,0.03c-0.01,0.06,0.01,0.07-0.01,0.09
	c-0.01,0.02-0.06,0-0.1,0c-0.02,0-0.03,0.01-0.03,0.02c-0.03,0.01-0.06,0.03-0.06,0.07c0.01-0.01,0.03-0.02,0.05-0.03
	c0,0.01,0,0.01,0,0.01c0,0.04,0.05,0.05,0.07,0.03c0-0.01,0.01,0,0.01,0.01c-0.02,0.02-0.07,0.06-0.03,0.07c0,0,0.01,0.01,0.02,0.01
	c0,0.02,0.02,0.05,0.04,0.05c-0.01-0.01-0.01-0.02,0-0.05c0.01,0,0.02,0,0.02,0c0.02,0,0.01-0.05,0.04-0.07c0,0,0.01,0,0,0
	c-0.01,0.03-0.01,0.07,0.01,0.07c0,0,0.01,0,0.02,0c0.01,0.02,0.04,0.04,0.07,0.02c-0.01,0-0.03-0.01-0.03-0.03
	c0.01-0.01,0.02-0.02,0.02-0.03c0.02-0.06-0.03-0.06-0.03-0.09c0-0.03,0.06-0.01,0.06-0.07c0-0.01,0-0.03-0.03-0.04c0,0,0,0,0,0l0,0
	c0.02,0,0.04,0,0.04-0.02c-0.05,0-0.03-0.04-0.04-0.06c0-0.01,0-0.01,0-0.01c0.01-0.01,0.03-0.03,0.02-0.07
	c-0.01,0.02-0.06,0.04-0.07,0c0,0,0-0.03-0.05-0.02c-0.08,0.01-0.13-0.01-0.27-0.02C27.27,19.09,27.52,19.05,27.52,18.95"/>
<path class="st0" d="M25.51,20.02c0.01-0.02,0.01-0.03,0.02-0.03c0.02,0,0.03,0,0.03-0.02c0.01-0.02-0.01-0.03-0.03-0.04
	c0.02-0.01,0.03-0.01,0.02-0.02c-0.01-0.01-0.03,0.01-0.03,0c0-0.01,0.01-0.01,0.01-0.02c0.01-0.01,0.01-0.01,0.03,0l0.08,0.04
	c0.01,0.01,0.02,0.01,0.02,0.02c0,0.01,0,0.02-0.01,0.03c-0.01,0-0.01-0.02-0.02-0.03c-0.01,0-0.01,0.01,0,0.03
	c-0.02-0.01-0.04-0.01-0.04,0c-0.01,0.02,0,0.03,0.01,0.04c0.01,0.01,0,0.02-0.01,0.04c-0.01,0.02-0.03,0.04-0.05,0.03
	C25.5,20.06,25.5,20.04,25.51,20.02 M25.6,19.83c-0.01,0.02-0.04,0.04-0.06,0.02c-0.02-0.02,0-0.02-0.02-0.07
	C25.54,19.8,25.59,19.83,25.6,19.83 M25.66,19.86c0.01,0.01,0.06,0.03,0.09,0.04c-0.04,0.01-0.03,0.02-0.06,0.02
	C25.66,19.92,25.66,19.88,25.66,19.86 M27.41,20.05c0-0.07-0.08-0.12-0.32-0.12c-0.24,0-0.97,0.09-0.97-0.05
	c0-0.08,0.25-0.05,0.43-0.05c0.01,0.01,0.03,0.03,0.05,0.03c0.31,0.09,0.63-0.12,0.85-0.05c-0.17-0.16-0.4,0.02-0.63-0.03
	c0.14,0,0.28-0.03,0.29-0.07c-0.11,0.07-0.41-0.05-0.53,0.03c-0.01,0.01-0.01,0.01-0.02,0.02c-0.23,0-0.5-0.03-0.5,0.1
	c0,0.24,0.84,0.1,1.04,0.1c0.2,0,0.24,0.02,0.24,0.06c0,0.06-0.2,0.07-0.31,0.07c-0.19,0-0.97-0.1-1.28-0.01
	c0.02-0.05,0.09-0.13,0.06-0.18c0.03-0.01,0.05-0.03,0.05-0.06c-0.02-0.02-0.04-0.02-0.06-0.03c0.01-0.01,0-0.03-0.01-0.04
	c0,0-0.01-0.04-0.02-0.04c-0.01-0.01-0.04-0.03-0.07-0.05c-0.03-0.02-0.06-0.02-0.07-0.02c-0.01,0-0.04,0.01-0.04,0.01
	c-0.02,0-0.04,0-0.04,0.02c-0.01-0.01-0.03-0.02-0.05-0.02c-0.01,0.03-0.02,0.05-0.01,0.09c-0.03,0-0.06,0.07-0.08,0.07
	c0.01,0.02,0.02,0.03,0.03,0.03c-0.02,0.04-0.03,0.09-0.06,0.1c0.01,0.01,0.02,0.02,0.03,0.03c-0.01,0.02-0.01,0.05-0.01,0.07
	l-0.03-0.01c-0.02,0-0.03,0-0.04,0c-0.01,0-0.02-0.01-0.04-0.01c-0.04,0-0.07-0.06-0.13-0.1c-0.05-0.03-0.05-0.05-0.05-0.1
	c0-0.04,0.02-0.08,0.02-0.12c0,0-0.01-0.03-0.01-0.04c-0.01-0.03-0.04-0.05-0.06-0.04c0.01,0.01,0.02,0.02,0.03,0.04
	c-0.01,0.01-0.02,0.02-0.02,0.02c-0.01,0.01-0.01,0.03,0,0.04c0,0,0,0.01,0,0.01c0,0.01,0,0.01,0,0.02c0,0.01,0,0,0,0
	c-0.01-0.03-0.03-0.07-0.05-0.08c0,0-0.01,0-0.02,0c0,0,0,0,0-0.01c0-0.03-0.03-0.05-0.07-0.02c0.01,0,0.02,0,0.03,0.01
	c0,0.01-0.01,0.03-0.01,0.03c0,0.03,0.02,0.04,0.06,0.04c0.01,0,0.01,0,0.01,0.01c0,0,0,0.01,0,0.01c0,0.01,0,0.01,0,0
	c-0.05-0.02-0.08,0-0.08,0.03c0,0,0,0.02,0,0.02c-0.02,0.02-0.03,0.04,0.01,0.07c0-0.01,0-0.03,0.01-0.03c0,0,0,0,0.01,0
	c0.01,0.01,0.01,0.01,0.01,0.01c0,0,0.01,0,0.03-0.01c0.01,0,0.01,0,0.01,0c0,0,0.01,0.01,0.02,0.01c0,0,0,0.01,0,0.01
	c-0.04,0.03-0.03,0.07,0.02,0.08c0,0,0.01,0.01,0.01,0.01c0,0.07-0.09,0.05-0.09-0.01c-0.05,0.08,0.04,0.14,0.1,0.1
	c0,0,0.01,0,0.01,0c0,0.01,0.01,0.02,0.02,0.03c0-0.01,0-0.01,0.02-0.01c0,0,0,0,0,0.01c0,0.02,0.01,0.04,0.03,0.04
	c0-0.01,0-0.03,0.01-0.03c0.01,0,0.06,0.09,0.16,0.15c0.02,0,0.05,0,0.06-0.03c0,0.01,0.01,0.02,0.02,0.02c0,0.04,0.03,0.1,0.02,0.1
	c-0.01,0-0.17-0.01-0.2,0.01c-0.05,0.02-0.15,0.07-0.19,0.02C25,20.36,25,20.35,24.98,20.32c-0.01-0.02-0.03-0.03-0.04-0.03
	c0,0-0.01,0-0.03,0c-0.02-0.02-0.06-0.02-0.08-0.01c0.01,0,0.03,0.01,0.04,0.03c0,0.01-0.01,0.02-0.01,0.02
	c-0.01,0.02,0,0.04,0.07,0.06c0,0,0.01,0.01,0,0.01c-0.01,0.01-0.02,0.01-0.04,0c-0.03-0.02-0.03-0.05-0.06-0.03
	c0,0-0.01,0.01-0.02,0.01c0,0-0.01,0-0.01,0c-0.03,0-0.08,0.04-0.06,0.07c0-0.01,0.02-0.03,0.04-0.03c0,0.01,0.01,0.02,0.01,0.02
	c0.01,0.04,0.02,0.06,0.1,0.01c0.01,0,0.01,0,0.01,0.01c-0.02,0.03-0.07,0.06-0.03,0.09c0,0,0.01,0.01,0.02,0.01c0,0,0,0,0,0.01
	c-0.01,0.04,0.04,0.07,0.06,0.07c-0.01-0.01-0.03-0.03-0.02-0.06c0.01,0,0.02,0.01,0.02,0.01c0.03-0.01,0.02-0.05,0.04-0.07
	c0.01,0,0.01,0,0.01,0.01c0,0.02,0.01,0.06,0.05,0.05c0.04,0,0.06-0.04,0.05-0.06c0,0,0-0.01,0,0c0.01,0.01,0.02,0.02,0.02,0.04
	c0.01,0,0.02-0.01,0.03-0.03c0.01,0.02,0.01,0.05-0.02,0.07c0.01,0,0.06-0.03,0.07-0.07c0.01,0.01,0.01,0.02,0.01,0.02c0,0,0,0,0,0
	c0.01,0.01,0.04,0.01,0.08,0c0,0,0,0,0,0c0,0.02,0,0.03,0,0.04c0,0,0.01-0.02,0.02-0.02c0.01,0,0,0.04,0.02,0.06
	c0.01-0.1,0.13-0.05,0.2-0.09c0.01-0.01,0.01,0,0.01,0c0,0.01-0.01,0.03-0.03,0.04c0.02,0,0.06-0.01,0.09-0.03
	c0,0-0.01,0.01-0.01,0.01l0.11-0.05c0-0.01,0.01-0.02,0.01-0.03c0.01,0,0.03-0.01,0.04-0.01c0,0,0,0,0,0
	c0.07,0.01,0.06-0.05,0.09-0.05c0.39,0.05,0.17-0.17,0.62-0.12c0.02,0,0.03-0.01,0.05-0.03c-0.02,0.04-0.02,0.12,0.02,0.13
	c0.02,0,0.06,0.02,0.08,0.03c0,0,0,0.01,0,0.01c-0.03,0.01-0.06,0.01-0.06,0.02c-0.07,0.05-0.07-0.11-0.15-0.08
	c0,0-0.02,0.01-0.02,0.02c-0.03,0-0.07,0.04-0.06,0.07c0.01-0.01,0.02-0.03,0.05-0.03c0,0.01,0,0.01,0,0.02c0,0.01,0,0.02,0.03,0.02
	c0.02,0,0.02-0.01,0.03-0.01c0,0,0.01,0,0.01,0.01c0,0.03-0.09-0.02-0.08,0.06c0,0,0.01,0.02,0.01,0.03c0,0.02,0.02,0.05,0.06,0.03
	c-0.01-0.01-0.02-0.02-0.02-0.03c0.01,0,0.02,0,0.02,0c0,0,0.01,0,0.01-0.01c0,0,0,0,0,0c0,0,0.01,0,0.01,0.01c0,0.01,0,0.01,0,0.02
	c0,0,0,0.02,0.01,0.03c0,0.03,0.04,0.06,0.08,0.03c-0.01,0-0.04-0.01-0.04-0.02c0.01-0.01,0.02-0.01,0.02-0.01
	c0.01,0,0.01-0.02,0.01-0.03c0-0.01,0-0.01,0.01-0.01c0,0,0.01,0,0.02,0c0.01,0,0.01,0,0.01,0.01c0.01,0.02,0.03,0.03,0.06,0.03
	c0.05-0.02,0.01-0.06,0.05-0.07c0.01,0,0.02,0,0.03,0c0.04,0.01,0.1,0.01,0.11-0.01c0.01-0.02,0.01-0.09-0.04-0.12
	c-0.03-0.01,0-0.04-0.02-0.08c0.04,0.02,0.09,0.04,0.15,0.04c0.11,0,0.14-0.02,0.18-0.05c0.05-0.03,0.11-0.02,0.13-0.01
	c0.01,0,0.03,0.01,0.02,0.03c-0.01,0.06,0.01,0.06-0.01,0.09c-0.01,0.02-0.06,0.01-0.09,0c-0.02,0-0.03,0.01-0.03,0.02
	c-0.03,0-0.06,0.03-0.06,0.06c0.01-0.01,0.03-0.02,0.05-0.03c0,0.01,0,0.01,0,0.01c0,0.04,0.05,0.05,0.07,0.03
	c0.01-0.01,0.01,0,0.01,0c-0.02,0.02-0.06,0.06-0.03,0.07c0,0,0.01,0.01,0.02,0.01c0,0.02,0.02,0.05,0.04,0.05
	c-0.01-0.01-0.01-0.02,0-0.05c0.01,0,0.02,0,0.02,0c0.02,0,0.01-0.05,0.04-0.06c0,0,0.01,0,0.01,0c-0.01,0.03-0.02,0.06,0.01,0.07
	c0,0,0.01,0,0.02,0c0.01,0.02,0.03,0.04,0.07,0.02c-0.01,0-0.02-0.01-0.03-0.02c0.01-0.01,0.02-0.02,0.02-0.03
	c0.02-0.06-0.03-0.06-0.03-0.08c0-0.03,0.06-0.01,0.06-0.07c0-0.01,0-0.03-0.03-0.03c0,0,0,0,0,0c0.02,0,0.03,0,0.04-0.02
	c-0.04,0-0.03-0.03-0.04-0.06c0,0,0-0.01,0-0.01c0.01-0.01,0.02-0.03,0.02-0.06c-0.01,0.02-0.06,0.04-0.06,0
	c0,0-0.01-0.03-0.05-0.02c-0.07,0.01-0.12-0.01-0.26-0.02C27.16,20.17,27.41,20.14,27.41,20.05"/>
<path class="st0" d="M29.25,21.98L29.25,21.98C29.25,21.98,29.25,21.98,29.25,21.98 M28.89,21.42
	C28.89,21.42,28.89,21.42,28.89,21.42C28.89,21.42,28.89,21.42,28.89,21.42 M28.87,21.5L28.87,21.5L28.87,21.5z M28.93,21.61
	c0.01-0.02,0.02-0.03,0.03-0.03c0.02,0,0.03,0,0.03-0.02c0-0.02-0.01-0.03-0.03-0.04c0.02-0.01,0.03-0.01,0.02-0.02
	c-0.01-0.01-0.03,0.01-0.03,0c0-0.01,0.01-0.01,0.01-0.02c0.01-0.01,0.01,0,0.03,0l0.07,0.04c0.01,0.01,0.01,0.01,0.01,0.02
	c0,0.01,0,0.02,0,0.02c-0.01,0-0.01-0.02-0.02-0.03c-0.01,0-0.01,0.01,0,0.03c-0.02-0.01-0.04-0.02-0.05,0
	c-0.01,0.01,0,0.02,0.01,0.04c0.01,0.01,0,0.02-0.01,0.04c-0.01,0.01-0.03,0.04-0.05,0.03C28.92,21.66,28.93,21.63,28.93,21.61
	 M29.02,21.42c-0.01,0.02-0.04,0.04-0.06,0.02c-0.02-0.02,0-0.03-0.02-0.07C28.97,21.39,29.01,21.42,29.02,21.42 M29.08,21.45
	c0.01,0.01,0.07,0.03,0.09,0.04c-0.04,0.01-0.03,0.03-0.06,0.03C29.09,21.51,29.08,21.47,29.08,21.45 M30.8,21.89
	C30.8,21.89,30.8,21.89,30.8,21.89c0.02-0.02,0.03-0.04,0.03-0.07c-0.02,0.02-0.07,0.05-0.07,0c0,0,0-0.03-0.04-0.02
	c-0.07,0.01-0.14-0.01-0.28-0.02c-0.01,0-0.01-0.01,0-0.01c0.14-0.01,0.39-0.03,0.39-0.12c0-0.07-0.08-0.12-0.32-0.12
	c-0.24,0-0.97,0.09-0.97-0.05c0-0.08,0.25-0.05,0.43-0.04c0.01,0.01,0.03,0.02,0.05,0.03c0.31,0.09,0.66-0.14,0.85-0.09
	c-0.24-0.08-0.39,0.06-0.63,0.01c0.14,0,0.28-0.03,0.29-0.07c-0.11,0.07-0.4-0.05-0.53,0.03c-0.01,0.01-0.02,0.01-0.02,0.02
	c-0.23,0-0.5-0.03-0.5,0.1c0,0.24,0.83,0.1,1.03,0.1c0.2,0,0.25,0.02,0.25,0.06c0,0.06-0.2,0.07-0.31,0.07
	c-0.19,0-0.97-0.1-1.28-0.01c0.02-0.05,0.09-0.13,0.06-0.17c0.03-0.01,0.05-0.03,0.05-0.06c-0.02-0.02-0.04-0.02-0.06-0.03
	c0.01-0.01,0-0.03-0.01-0.04c0,0-0.01-0.04-0.02-0.04c-0.01-0.01-0.03-0.03-0.07-0.05c-0.03-0.02-0.06-0.02-0.07-0.02
	c-0.01,0-0.04,0.01-0.04,0.01c-0.02,0-0.04,0-0.04,0.02c-0.02-0.01-0.04-0.02-0.06-0.02c-0.01,0.03-0.02,0.05-0.01,0.09
	c-0.03,0-0.06,0.07-0.09,0.06c0.01,0.02,0.02,0.03,0.03,0.03c-0.02,0.04-0.03,0.09-0.06,0.1c0.02,0.02,0.03,0.03,0.04,0.03
	c0,0.03,0,0.05-0.01,0.07l-0.04-0.01c-0.02,0-0.03,0-0.04,0c-0.01,0-0.02-0.01-0.04-0.01c-0.04,0-0.07-0.07-0.13-0.1
	c-0.05-0.03-0.05-0.05-0.05-0.1c0-0.04,0.02-0.08,0.02-0.11c0-0.01-0.01-0.03-0.01-0.04c-0.01-0.02-0.04-0.05-0.06-0.04
	c0.01,0.01,0.02,0.02,0.03,0.04c-0.01,0.01-0.02,0.02-0.02,0.02c-0.01,0.01-0.01,0.03,0,0.04c0,0,0,0.01,0,0.01
	c0,0.01,0,0.01,0,0.02c0,0.01,0,0-0.01,0c-0.01-0.03-0.02-0.07-0.05-0.07c0,0-0.01,0-0.02,0c0,0,0,0,0-0.01
	c0-0.03-0.03-0.05-0.07-0.02c0.01,0,0.03,0,0.03,0.01c0,0.01-0.01,0.03-0.01,0.03c0,0.03,0.02,0.04,0.05,0.04
	c0.01,0,0.01,0,0.01,0.01c0,0,0,0.01,0,0.01c0,0.01,0,0.01,0,0c-0.05-0.02-0.08,0-0.08,0.03c0,0,0,0.02,0,0.02
	c-0.02,0.01-0.02,0.04,0.01,0.07c0-0.01,0-0.03,0.01-0.04c0,0,0,0,0.01,0c0.01,0,0.01,0.01,0.01,0.01c0,0,0.01,0,0.03-0.01
	c0,0,0.01,0,0.01,0c0,0,0.01,0.01,0.01,0.01c0,0,0,0.01,0,0.01c-0.04,0.04-0.03,0.07,0.02,0.08c0,0,0.01,0,0.01,0.01
	c0,0.07-0.09,0.05-0.09-0.01c-0.05,0.08,0.04,0.14,0.1,0.1c0.01,0,0.01,0,0.01,0c0,0.01,0.01,0.02,0.02,0.02c0,0,0-0.01,0.02-0.01
	c0,0,0,0,0,0.01c0,0.02,0.01,0.04,0.03,0.04c0-0.02,0-0.03,0.01-0.03c0.01,0,0.06,0.1,0.15,0.15c0-0.01,0.04-0.02,0.06-0.04
	c0,0.02,0.01,0.04,0.03,0.04l0.02-0.01c-0.01,0.04,0.05,0.09,0.04,0.09c-0.01,0-0.1-0.01-0.14,0.01c-0.04,0.03-0.16,0.06-0.19,0.02
	c-0.01-0.02-0.01-0.03-0.02-0.05c-0.01-0.02-0.02-0.03-0.04-0.03c0,0-0.01,0-0.03,0c-0.02-0.02-0.06-0.02-0.07-0.01
	c0.01,0,0.03,0.01,0.04,0.03c0,0.01-0.01,0.02-0.01,0.02c-0.01,0.02,0,0.04,0.07,0.06c0,0,0.01,0.01,0,0.01
	c-0.01,0.01-0.03,0.01-0.04-0.01c-0.03-0.02-0.03-0.05-0.06-0.03c0,0-0.01,0.01-0.02,0.01c0,0,0,0-0.01,0
	c-0.03,0-0.08,0.04-0.06,0.07c0-0.01,0.01-0.03,0.04-0.03c0,0.01,0,0.02,0.01,0.02c0.01,0.04,0.02,0.06,0.09,0.02
	c0.01,0,0.01,0,0.01,0c-0.02,0.03-0.07,0.06-0.03,0.09c0,0,0.01,0.01,0.02,0.01c0,0,0,0,0,0.01c-0.01,0.04,0.04,0.07,0.06,0.07
	c-0.01-0.01-0.03-0.03-0.02-0.06c0.01,0,0.02,0.01,0.02,0.01c0.03-0.02,0.02-0.06,0.04-0.07c0,0,0.01,0,0.01,0
	c0,0.02,0.01,0.06,0.05,0.05c0.04,0,0.06-0.04,0.05-0.06c0,0,0,0,0,0c0.01,0.01,0.02,0.02,0.02,0.05c0.01,0,0.02-0.02,0.03-0.03
	c0.01,0.02,0.01,0.05-0.02,0.07c0.02-0.01,0.06-0.03,0.07-0.07c0.01,0.01,0.01,0.02,0.02,0.02c0,0,0,0,0,0
	c0.01,0.01,0.04,0.01,0.08,0c0.01,0,0.01,0,0.01,0c0,0.02,0,0.03,0,0.04c0,0,0.01-0.02,0.02-0.02c0.01,0,0,0.04,0.02,0.07
	c0.01-0.11,0.07-0.07,0.13-0.11c0.01-0.01,0.01,0,0.01,0c0,0.01-0.01,0.02-0.03,0.03c0.02,0.02,0.12-0.04,0.12-0.08
	c0-0.01,0.04-0.01,0.07-0.02c0.07,0,0.06-0.05,0.09-0.05c0.39,0.05,0.17-0.17,0.63-0.12c0.02,0,0.03-0.03,0.05-0.04
	c-0.02,0.04-0.03,0.14,0.02,0.14c0.02,0,0.06,0.02,0.08,0.03c0,0,0,0.01,0,0.01c-0.03,0-0.06,0.01-0.06,0.02
	c-0.07,0.05-0.07-0.11-0.15-0.08c0,0-0.02,0.01-0.02,0.02c-0.03,0-0.07,0.04-0.06,0.07c0.01-0.01,0.03-0.03,0.05-0.03v0.02
	c0,0.01,0,0.02,0.03,0.02c0.01,0,0.02-0.01,0.03-0.01c0.01,0,0.01,0,0.01,0.01c0,0.03-0.1-0.01-0.08,0.06c0,0,0.01,0.02,0.02,0.03
	c0,0.02,0.02,0.05,0.06,0.03c-0.01-0.01-0.02-0.02-0.02-0.03c0.01,0,0.02,0,0.02,0c0,0,0.01,0,0.01-0.01c0,0,0,0,0,0
	c0,0,0.01,0,0.01,0.01c0,0.01-0.01,0.01,0,0.02c0,0,0,0.02,0.01,0.03c0,0.03,0.04,0.06,0.08,0.03c-0.01,0-0.04-0.01-0.04-0.02
	c0.01,0,0.02-0.01,0.02-0.01c0.01-0.01,0.01-0.02,0.01-0.03c0-0.01,0-0.01,0.01-0.01c0.01,0,0.01,0,0.02,0c0.01,0,0.01,0,0.01,0.01
	c0.01,0.02,0.03,0.03,0.06,0.02c0.05-0.02,0.01-0.06,0.05-0.07c0.01,0,0.02,0,0.03,0c0.04,0.01,0.1,0.01,0.11-0.01
	c0.01-0.02,0-0.09-0.04-0.11c-0.02-0.01,0-0.04-0.02-0.08c0.04,0.02,0.09,0.04,0.15,0.04c0.11,0,0.14-0.01,0.2-0.04
	c0.06-0.03,0.12-0.02,0.13-0.01c0.01,0,0.02,0.01,0.02,0.03c-0.02,0.06,0,0.06-0.01,0.09c-0.01,0.02-0.06,0-0.09,0
	c-0.02,0-0.03,0.01-0.03,0.02c-0.03,0.01-0.06,0.03-0.06,0.06c0.01-0.01,0.03-0.02,0.05-0.03v0.01c0,0.04,0.04,0.05,0.07,0.03
	c0,0,0.01,0,0.01,0.01c-0.02,0.02-0.07,0.05-0.03,0.07c0,0,0.01,0.01,0.02,0.01c0,0.02,0.01,0.05,0.03,0.05
	c-0.01-0.01-0.01-0.02,0.01-0.05h0.02c0.02,0,0.02-0.05,0.05-0.06c0,0,0.01,0,0,0c-0.01,0.03-0.02,0.06,0,0.07c0,0,0.01,0,0.02,0.01
	c0.01,0.02,0.03,0.04,0.07,0.02c-0.01,0-0.02-0.01-0.03-0.02c0.01-0.01,0.02-0.02,0.02-0.03c0.02-0.06-0.03-0.06-0.03-0.08
	c0-0.03,0.06-0.01,0.06-0.07c0-0.01,0-0.03-0.02-0.03c0,0,0,0,0-0.01h0c0.02,0,0.03,0.01,0.04-0.02
	C30.79,21.95,30.81,21.92,30.8,21.89"/>
<path class="st0" d="M29.08,22.57c-0.03,0-0.04-0.04-0.03-0.06c0.01,0.01,0.06,0.03,0.09,0.04C29.09,22.55,29.1,22.57,29.08,22.57
	 M29.04,22.62c-0.01,0-0.01-0.02-0.02-0.02c-0.01,0-0.01,0.01,0,0.02c-0.02-0.01-0.03-0.02-0.04,0c-0.01,0.01,0,0.02,0.01,0.04
	c0.01,0.01,0,0.02-0.01,0.04c-0.01,0.02-0.03,0.04-0.05,0.03c-0.03-0.01-0.02-0.04-0.01-0.06c0.01-0.02,0.01-0.03,0.02-0.03
	c0.02,0,0.02,0,0.03-0.02c0.01-0.02-0.01-0.03-0.03-0.04c0.02,0,0.03-0.01,0.02-0.02c-0.01-0.01-0.03,0.01-0.03,0
	c0-0.01,0.01-0.01,0.01-0.02c0.01-0.01,0.01-0.01,0.02,0l0.07,0.03c0.01,0.01,0.01,0.01,0.01,0.02
	C29.04,22.6,29.05,22.61,29.04,22.62 M28.99,22.48c-0.01,0.02-0.04,0.04-0.06,0.02c-0.02-0.02,0-0.02-0.02-0.06
	C28.94,22.45,28.98,22.48,28.99,22.48 M29.73,22.49c0.01,0.02,0.02,0.03,0.05,0.04c0.29,0.08,0.63-0.14,0.8-0.09
	c-0.23-0.08-0.38,0.06-0.6,0.01c0.13,0,0.27-0.03,0.27-0.06c-0.1,0.07-0.39-0.04-0.5,0.03c-0.01,0-0.01,0.01-0.02,0.01
	c-0.16,0-0.29,0-0.29,0.1c0,0.23,0.61,0.09,0.8,0.09c0.19,0,0.17,0.02,0.17,0.06c0,0.05-0.22,0.07-0.33,0.07
	c-0.16,0-0.66-0.09-0.97-0.03c0.02-0.05,0.08-0.11,0.05-0.15c0.03-0.01,0.05-0.04,0.05-0.06c-0.02-0.02-0.04-0.02-0.06-0.03
	c0.01-0.01,0-0.03-0.01-0.04c0,0-0.01-0.03-0.02-0.04c-0.01-0.01-0.03-0.03-0.07-0.04c-0.03-0.02-0.05-0.02-0.07-0.02
	c-0.01,0-0.04,0.01-0.04,0.01c-0.02,0-0.03,0-0.04,0.02c-0.01-0.01-0.03-0.02-0.05-0.02c-0.01,0.03-0.02,0.05-0.01,0.08
	c-0.03,0-0.05,0.07-0.08,0.06c0.01,0.02,0.02,0.03,0.03,0.03c-0.02,0.04-0.03,0.09-0.06,0.09c0.01,0.01,0.02,0.02,0.02,0.03
	c-0.01,0.03-0.01,0.06-0.01,0.08l-0.03-0.01c0,0-0.01,0-0.01,0c-0.04,0-0.06,0-0.12-0.03c-0.05-0.03-0.05-0.05-0.05-0.09
	c0-0.04,0.02-0.07,0.02-0.11c0,0-0.01-0.02-0.01-0.04c-0.01-0.02-0.04-0.04-0.06-0.04c0.01,0.01,0.02,0.02,0.03,0.04
	c-0.01,0.01-0.02,0.02-0.02,0.02c-0.01,0.01-0.01,0.03,0,0.04c0,0,0,0.01,0,0.01c0,0,0,0.01,0,0.02s0,0-0.01,0
	c-0.01-0.03-0.02-0.07-0.05-0.07c0,0-0.01,0-0.02,0c0,0,0,0,0-0.01c0-0.03-0.03-0.05-0.07-0.02c0.01,0,0.02,0,0.03,0.01
	c0,0.01-0.01,0.03-0.01,0.03c0,0.03,0.02,0.04,0.05,0.04c0.01,0,0.01,0,0.01,0.01c0,0,0,0.01,0,0.01c0,0.01,0,0.01-0.01,0
	c-0.05-0.02-0.07,0-0.07,0.02c0,0,0,0.02,0,0.02c-0.02,0.01-0.02,0.04,0.01,0.06c0-0.01,0-0.03,0.01-0.03c0,0,0,0,0.01,0
	c0.01,0.01,0.01,0.01,0.01,0.01c0,0,0.01,0,0.03-0.01c0,0,0.01-0.01,0.01,0c0.01,0.01,0.01,0.01,0.02,0.01c0,0,0,0.01,0,0.01
	c-0.04,0.03-0.03,0.07,0.01,0.07c0.01,0,0.01,0.01,0.01,0.01c0,0.06-0.09,0.05-0.09-0.01c-0.05,0.07,0.04,0.13,0.1,0.09
	c0,0,0,0,0.01,0c0,0.01,0.01,0.02,0.02,0.02c0-0.01,0-0.01,0.01-0.01c0.01,0,0.01,0,0.01,0.01c0,0.01,0.01,0.04,0.03,0.04
	c0-0.01,0-0.03,0.01-0.03c0.01,0,0.01-0.03,0.09,0.02c0.01,0.01,0.01,0.02,0.03,0.03l0.06-0.01c-0.01,0.04,0.01,0.11,0,0.11
	c-0.01,0-0.1-0.01-0.13,0.01c-0.04,0.02-0.15,0.06-0.18,0.02c-0.01-0.02-0.01-0.03-0.02-0.05c-0.01-0.02-0.02-0.03-0.04-0.03h-0.02
	c-0.02-0.02-0.06-0.02-0.07-0.01c0.01,0,0.03,0.01,0.04,0.03c0,0.01-0.01,0.02-0.01,0.02c-0.01,0.01,0,0.04,0.06,0.06
	c0,0,0.01,0.01,0,0.01c-0.01,0-0.02,0.01-0.04,0c-0.03-0.02-0.03-0.05-0.06-0.03c0,0-0.01,0.01-0.02,0.01c0,0,0,0-0.01,0
	c-0.03,0-0.07,0.03-0.05,0.07c0-0.01,0.01-0.03,0.04-0.03c0,0.01,0,0.02,0.01,0.02c0.01,0.03,0.02,0.06,0.09,0.02
	c0.01,0,0.01,0,0.01,0c-0.02,0.03-0.06,0.06-0.03,0.08c0,0,0.01,0.01,0.01,0.01c0,0,0,0,0,0.01c0,0.04,0.04,0.07,0.06,0.06
	c-0.01-0.01-0.03-0.03-0.02-0.06c0.01,0,0.02,0.01,0.02,0.01c0.03-0.01,0.02-0.05,0.03-0.07c0,0,0.01,0,0.01,0
	c0,0.02,0.01,0.05,0.05,0.05c0.04,0,0.06-0.04,0.05-0.06c0,0,0,0,0.01,0c0.01,0.01,0.02,0.02,0.02,0.04
	c0.01-0.01,0.02-0.02,0.03-0.03c0.01,0.02,0.01,0.05-0.02,0.07c0.02-0.01,0.06-0.02,0.06-0.07c0.01,0.01,0.01,0.02,0.01,0.02
	c0,0,0,0,0.01,0c0.01,0.01,0.04,0.01,0.08,0c0,0,0.01,0,0.01,0c-0.01,0.02-0.01,0.03,0,0.04c0-0.01,0.01-0.02,0.02-0.02
	c0.01,0,0,0.04,0.02,0.06c0.01-0.1,0.09-0.08,0.15-0.12c0.01-0.01,0.01,0,0.01,0c0,0.01-0.01,0.02-0.03,0.03
	c0.07,0.04,0.14-0.05,0.16-0.1c0.01-0.01,0.01-0.01,0.02-0.02c0,0.01,0.01,0.02-0.01,0.03c0.07,0,0.06-0.05,0.08-0.05
	c0.2,0.02,0.05-0.17,0.36-0.11c0.02,0,0.06-0.02,0.08-0.03c-0.02,0.04-0.02,0.13,0.02,0.14c0.02,0,0.06,0.02,0.08,0.03
	c0,0.01,0,0.01,0,0.01c-0.03,0-0.05,0.01-0.06,0.02c-0.07,0.04-0.07-0.1-0.14-0.07c0,0-0.01,0.01-0.02,0.01
	c-0.03,0-0.07,0.03-0.06,0.06c0.01-0.01,0.02-0.02,0.05-0.03c0,0.01,0,0.02,0,0.02c0,0.01,0,0.02,0.03,0.02
	c0.02,0,0.02-0.01,0.03-0.01c0,0,0.01,0,0.01,0.01c0,0.03-0.09-0.02-0.07,0.06c0,0,0.01,0.02,0.01,0.02c0,0.02,0.02,0.05,0.06,0.03
	c-0.01-0.01-0.02-0.02-0.02-0.03c0.01,0,0.01,0,0.02,0c0,0,0.01,0,0.01-0.01c0,0,0,0,0.01,0c0,0,0.01,0,0.01,0.01
	c0,0-0.01,0.01-0.01,0.01c0,0,0,0.02,0.01,0.03c0,0.03,0.04,0.06,0.08,0.03c-0.01,0-0.04-0.01-0.04-0.02c0.01,0,0.02-0.01,0.02-0.01
	c0.01-0.01,0.01-0.02,0.01-0.03c0-0.01,0.01-0.01,0.01-0.01c0,0,0.01,0,0.02,0c0.01,0,0.01,0,0.01,0.01
	c0.01,0.02,0.03,0.03,0.06,0.02c0.05-0.02,0.01-0.06,0.05-0.07c0.01,0,0.02-0.01,0.03,0c0.04,0.01,0.09,0.01,0.1-0.01
	c0.01-0.02,0.01-0.09-0.04-0.11c-0.02-0.01,0-0.04-0.02-0.08c0.04,0.02,0.08,0.04,0.14,0.04c0.1,0,0.15-0.01,0.21-0.04
	c0.06-0.03,0.11-0.02,0.13-0.01c0.01,0,0.02,0.01,0.01,0.03c-0.02,0.05-0.01,0.06-0.03,0.08c-0.02,0.02-0.06,0.01-0.09,0
	c-0.02,0-0.03,0.01-0.03,0.01c-0.03,0.01-0.06,0.03-0.07,0.06c0.01-0.01,0.03-0.02,0.05-0.02c0,0,0,0.01,0,0.01
	c-0.01,0.04,0.03,0.05,0.06,0.02c0-0.01,0.01,0,0.01,0.01c-0.02,0.02-0.07,0.05-0.05,0.07c0,0,0.01,0.01,0.02,0.01
	c-0.01,0.02,0,0.05,0.02,0.05c0-0.01,0-0.02,0.01-0.04c0.01,0,0.02,0,0.02,0c0.02,0,0.02-0.05,0.05-0.06c0,0,0.01,0,0,0
	c-0.02,0.03-0.03,0.06-0.01,0.07c0,0,0.01,0,0.02,0.01c0,0.02,0.02,0.04,0.06,0.02c-0.01,0-0.02-0.01-0.02-0.02
	c0.01-0.01,0.02-0.02,0.02-0.02c0.03-0.06-0.02-0.06-0.01-0.08c0.01-0.03,0.06-0.01,0.07-0.07c0-0.01,0-0.03-0.01-0.03c0,0,0,0,0,0
	h0c0.02,0,0.03,0,0.05-0.02c-0.04,0-0.02-0.03-0.02-0.05c0,0,0-0.01,0-0.01c0.02-0.01,0.03-0.03,0.03-0.06
	c-0.02,0.02-0.07,0.04-0.07,0c0,0,0.01-0.03-0.04-0.02c-0.07,0.01-0.17-0.01-0.3-0.02c-0.01,0-0.01-0.01,0-0.01
	c0.13-0.01,0.4-0.03,0.4-0.11c0-0.07-0.01-0.11-0.24-0.11c-0.23,0-0.74,0.08-0.74-0.04C29.51,22.48,29.61,22.49,29.73,22.49"/>
<path class="st0" d="M28.81,23.72c0.01-0.02,0.01-0.03,0.02-0.03c0.01,0,0.02,0,0.03-0.02c0.01-0.02-0.01-0.03-0.02-0.03
	c0.02-0.01,0.02-0.01,0.02-0.02c-0.01-0.01-0.03,0.01-0.03,0c0-0.01,0.01-0.01,0.01-0.02c0.01-0.01,0.01,0,0.02,0l0.07,0.03
	c0.01,0.01,0.01,0.01,0.01,0.02c0,0.01,0,0.02-0.01,0.02c-0.01,0,0-0.02-0.02-0.02c-0.01,0-0.01,0.01,0,0.02
	c-0.02,0-0.03-0.01-0.04,0c-0.01,0.01,0,0.02,0.01,0.03c0,0.01,0,0.02-0.01,0.03c-0.01,0.01-0.03,0.04-0.05,0.02
	C28.8,23.76,28.8,23.73,28.81,23.72 M28.89,23.55c-0.01,0.02-0.04,0.04-0.06,0.02c-0.02-0.02,0-0.02-0.02-0.06
	C28.84,23.52,28.88,23.55,28.89,23.55 M28.94,23.57c0.01,0.01,0.06,0.03,0.08,0.03c-0.04,0.01-0.03,0.02-0.05,0.02
	C28.95,23.63,28.94,23.6,28.94,23.57 M29.49,23.55c0.01,0.02,0.02,0.03,0.05,0.04c0.29,0.08,0.63-0.14,0.81-0.09
	c-0.23-0.08-0.38,0.06-0.6,0.01c0.13,0,0.27-0.03,0.28-0.06c-0.1,0.07-0.39-0.05-0.51,0.03c-0.01,0.01-0.02,0.01-0.02,0.02
	c-0.09,0.02-0.17,0.07-0.17,0.13c0,0.19,0.75,0.04,0.75,0.1c0,0.05-0.15,0.1-0.34,0.1c-0.15,0-0.41-0.1-0.73-0.02v0
	c0.02-0.05,0.09-0.14,0.06-0.17c0.03-0.01,0.04-0.03,0.05-0.05c-0.01-0.02-0.03-0.02-0.05-0.02c0.01-0.02,0-0.03-0.01-0.04
	c0,0-0.01-0.03-0.01-0.04c-0.01-0.01-0.03-0.03-0.06-0.04c-0.03-0.02-0.05-0.01-0.07-0.02c-0.01,0-0.03,0.01-0.04,0.01
	c-0.01,0-0.03,0-0.04,0.02c-0.01-0.01-0.03-0.02-0.05-0.02c-0.01,0.02-0.02,0.05-0.01,0.08c-0.03,0-0.05,0.07-0.08,0.06
	c0.01,0.02,0.02,0.03,0.02,0.03c-0.02,0.04-0.03,0.09-0.06,0.09c0.01,0.01,0.02,0.02,0.03,0.03c-0.01,0.06-0.02,0.13-0.01,0.18
	c-0.04-0.05-0.11-0.16-0.16-0.18c-0.04-0.03-0.04-0.05-0.04-0.09c0-0.04,0.02-0.07,0.01-0.11c0,0,0-0.02-0.01-0.03
	c-0.01-0.02-0.04-0.04-0.06-0.04c0.01,0.01,0.02,0.02,0.02,0.04c-0.01,0.01-0.02,0.02-0.02,0.02c-0.01,0.01-0.01,0.02,0,0.04
	c0,0,0,0.01,0,0.01c0,0.01,0,0.01,0,0.02c0,0.01,0,0,0,0c-0.01-0.03-0.02-0.07-0.05-0.07c0,0-0.01,0-0.02,0c0,0,0,0,0-0.01
	c0-0.03-0.03-0.05-0.06-0.02c0.01,0,0.02,0,0.03,0.01c0,0.01-0.01,0.03-0.01,0.03c0,0.03,0.02,0.04,0.05,0.04c0,0,0.01,0,0.01,0.01
	c0,0,0,0.01,0,0.01c0,0.01,0,0.01,0,0c-0.05-0.02-0.07,0-0.07,0.02c0,0,0,0.02,0,0.02c-0.02,0.01-0.02,0.04,0.01,0.06
	c0-0.01,0-0.03,0.01-0.03c0,0,0.01,0,0.01,0c0,0.01,0.01,0.01,0.01,0.01c0,0,0.01,0,0.03-0.01c0,0,0,0,0.01,0
	c0,0,0.01,0.01,0.01,0.01c0,0,0,0.01,0,0.01c-0.03,0.03-0.03,0.06,0.02,0.07c0.01,0,0.01,0,0.01,0.01
	c-0.01,0.06-0.08,0.05-0.08-0.01c-0.04,0.07,0.03,0.12,0.09,0.09c0,0,0.01,0,0.01,0c0,0.01,0.01,0.02,0.02,0.02
	c0,0,0-0.01,0.01-0.01c0.01,0,0.01,0,0.01,0.01c0,0.02,0,0.04,0.03,0.04c0-0.01,0-0.02,0.01-0.02c0.01,0,0,0.09,0.09,0.14
	c0.01,0.05,0.06,0.08,0.1,0.08c0.01,0.04,0.04,0.07,0.03,0.07c-0.01,0-0.12-0.01-0.14,0c-0.02,0.01-0.06,0.03-0.1,0.03l-0.01,0.01
	c0,0,0-0.01,0.01-0.01c-0.03,0.01-0.06,0-0.07-0.02c-0.01-0.02-0.01-0.03-0.02-0.05c-0.01-0.02-0.02-0.03-0.03-0.03
	c0,0-0.01,0-0.03,0c-0.01-0.02-0.05-0.02-0.07-0.01c0.01,0,0.03,0.01,0.04,0.03c0,0.01-0.01,0.02-0.01,0.02
	c-0.01,0.01,0,0.03,0.06,0.06c0,0,0.01,0.01,0,0.01c-0.01,0.01-0.02,0.01-0.03,0c-0.03-0.02-0.03-0.05-0.06-0.03
	c0,0-0.01,0.01-0.02,0.01c0,0,0,0-0.01,0c-0.03,0-0.07,0.03-0.05,0.07c0-0.01,0.01-0.03,0.03-0.03c0,0.01,0.01,0.02,0.01,0.02
	c0,0.03,0.02,0.06,0.08,0.01c0.01,0,0.01,0,0.01,0.01c-0.02,0.03-0.06,0.05-0.03,0.08c0,0,0.01,0.01,0.01,0.01c0,0,0,0.01,0,0.01
	c-0.01,0.04,0.03,0.06,0.06,0.06c-0.01-0.01-0.03-0.03-0.02-0.06c0.01,0,0.02,0.01,0.02,0.01c0.03-0.01,0.01-0.05,0.03-0.06
	c0.01,0,0.01,0,0.01,0c0,0.02,0.01,0.05,0.05,0.05c0.03,0,0.05-0.03,0.05-0.05c0,0,0,0,0,0c0.01,0.01,0.02,0.02,0.02,0.04
	c0.01,0,0.02-0.02,0.03-0.03c0.01,0.02,0.01,0.04-0.01,0.06c0.01,0,0.05-0.02,0.06-0.06c0.01,0.01,0.01,0.01,0.01,0.02c0,0,0,0,0,0
	c0.01,0.01,0.04,0.01,0.08,0c0,0,0.01,0,0.01,0.01c0,0.01,0,0.03,0,0.04c0,0,0.01-0.02,0.02-0.02c0.01,0,0,0.04,0.02,0.06
	c0.01-0.09,0.06-0.06,0.12-0.1c0.01,0,0.01,0,0.01,0.01c0,0.01-0.01,0.02-0.03,0.03c0.02,0,0.09-0.03,0.09-0.06
	c0-0.01,0.04-0.05,0.06-0.16c0.01,0,0.02,0,0.02,0c0.08-0.01,0.12-0.06,0.19-0.07c-0.02,0.02-0.03,0.08-0.02,0.11
	c0,0.04,0.06,0.09,0.07,0.1c0,0.01,0,0.01,0,0.01c-0.02,0-0.05,0.01-0.06,0.02c-0.06,0.04-0.07-0.1-0.13-0.07
	c0,0-0.01,0.01-0.02,0.02c-0.03,0-0.06,0.03-0.06,0.06c0.01-0.01,0.02-0.02,0.04-0.03v0.01c0,0.01,0,0.02,0.03,0.02
	c0.01,0,0.02-0.01,0.03-0.01c0,0,0.01,0,0.01,0.01c0,0.03-0.09-0.01-0.07,0.06c0,0,0.01,0.02,0.01,0.02c0,0.02,0.02,0.04,0.05,0.03
	c-0.01-0.01-0.02-0.02-0.02-0.03c0.01,0,0.01,0,0.02,0c0,0,0.01,0,0.01-0.01c0,0,0,0,0,0c0,0,0.01,0,0.01,0.01
	c0,0-0.01,0.01-0.01,0.02c0,0,0,0.02,0.01,0.02c0,0.03,0.03,0.05,0.07,0.03c-0.01,0-0.03,0-0.04-0.02c0.01,0,0.02-0.01,0.02-0.01
	c0.01,0,0.01-0.02,0.01-0.02c0-0.01,0-0.01,0.01-0.01c0.01,0,0.01,0,0.02,0c0.01,0,0.01,0,0.01,0.01c0.01,0.01,0.03,0.03,0.05,0.02
	c0.05-0.01,0.01-0.05,0.04-0.06c0.01,0,0.02,0,0.03,0c0.04,0.01,0.06,0.02,0.07,0c0.01-0.02,0.01-0.08-0.03-0.1
	c-0.02-0.01,0.03-0.16-0.08-0.22c0.05,0.01,0.22,0.04,0.25,0c0.05,0.01,0.11,0.04,0.11,0.06c0.01,0.01,0.01,0.02,0,0.03
	c-0.04,0.03-0.04,0.04-0.06,0.05l0,0c-0.01-0.01-0.03-0.04-0.04-0.04c-0.02-0.01-0.03,0-0.03,0c-0.02-0.01-0.06,0-0.07,0.03
	c0.01,0,0.03-0.01,0.05,0c0,0,0,0.01,0,0.01c0,0.01,0,0.02,0.01,0.02h0h0c0,0,0,0,0,0c0,0,0,0.01,0,0.01
	c-0.03-0.01-0.07-0.01-0.06,0.02c0,0,0,0.01,0,0.02c-0.02,0.01-0.02,0.04-0.01,0.05c0-0.01,0.01-0.02,0.03-0.03
	c0,0.01,0.01,0.01,0.01,0.01c0.01,0.02,0.04-0.02,0.07-0.01c0,0,0.01,0,0,0.01c-0.03,0.01-0.05,0.03-0.04,0.05c0,0,0,0.01,0.01,0.02
	c-0.01,0.02,0,0.05,0.03,0.06c0-0.01-0.01-0.02,0-0.03c0.01,0,0.03,0,0.03,0c0.05-0.03,0.02-0.06,0.04-0.07
	c0.02-0.02,0.04,0.03,0.08-0.01c0.01,0,0.01-0.02,0.01-0.04c0,0,0,0,0-0.01v0c0.01,0.01,0.02,0.02,0.04,0.01
	c-0.03-0.03,0-0.04,0.01-0.06c0,0,0-0.01,0.01,0c0.01,0,0.03,0,0.05-0.03c-0.02,0-0.08-0.03-0.04-0.04
	c0.05-0.02,0.06-0.05,0.04-0.07c-0.04-0.05-0.12-0.06-0.12-0.11c0.03,0,0.07,0,0.07,0c0.26,0,0.42-0.07,0.41-0.15
	c-0.01-0.17-0.76,0.01-0.76-0.11C29.39,23.6,29.43,23.57,29.49,23.55"/>
<path class="st0" d="M17.24,10.36c0-0.1-0.08-0.18-0.18-0.18c-0.1,0-0.18,0.08-0.18,0.18c0,0.1,0.08,0.18,0.18,0.18
	C17.15,10.54,17.24,10.46,17.24,10.36"/>
<path class="st0" d="M17.17,9.87c0-0.1-0.08-0.18-0.18-0.18c-0.1,0-0.18,0.08-0.18,0.18c0,0.1,0.08,0.18,0.18,0.18
	C17.09,10.06,17.17,9.97,17.17,9.87"/>
<path class="st0" d="M17.28,9.66c0.1,0,0.18-0.08,0.18-0.18s-0.08-0.18-0.18-0.18c-0.1,0-0.18,0.08-0.18,0.18S17.18,9.66,17.28,9.66
	"/>
<path class="st0" d="M17.76,9.62c0.1,0,0.18-0.08,0.18-0.18s-0.08-0.18-0.18-0.18c-0.1,0-0.18,0.08-0.18,0.18S17.66,9.62,17.76,9.62
	"/>
<path class="st0" d="M19.85,9.28c0.07,0.07,0.19,0.07,0.26,0c0.07-0.07,0.07-0.19,0-0.26c-0.07-0.07-0.19-0.07-0.26,0
	C19.78,9.1,19.78,9.21,19.85,9.28"/>
<path class="st0" d="M19.81,8.89c0.07-0.07,0.07-0.19,0-0.26c-0.07-0.07-0.19-0.07-0.26,0c-0.07,0.07-0.07,0.19,0,0.26
	C19.62,8.97,19.74,8.97,19.81,8.89"/>
<path class="st0" d="M19.32,8.81c0.07-0.07,0.07-0.19,0-0.26c-0.07-0.07-0.19-0.07-0.26,0c-0.07,0.07-0.07,0.19,0,0.26
	C19.13,8.89,19.25,8.89,19.32,8.81"/>
<path class="st0" d="M18.91,9.12c0.07-0.07,0.07-0.19,0-0.26c-0.07-0.07-0.19-0.07-0.26,0c-0.07,0.07-0.07,0.19,0,0.26
	C18.72,9.19,18.83,9.19,18.91,9.12"/>
<path class="st0" d="M17.74,8.87l0.15,0.32l0.19-0.22c0.01,0,0.02,0.01,0.02,0.01c0.02,0.11,0.02,0.29,0.02,0.4
	c0,0.13,0.1,0.23,0.23,0.23c0.13,0,0.24-0.1,0.24-0.23c0-0.09-0.05-0.17-0.12-0.21C18.37,9.1,18.26,9,18.2,8.93
	c0-0.01,0.01-0.02,0.01-0.03l0.31,0.03L18.4,8.6l-0.23,0.2c0,0-0.01-0.01-0.01-0.01l-0.02-0.34l-0.32,0.12l0.21,0.25
	c-0.01,0.01-0.01,0.02-0.01,0.03L17.74,8.87z"/>
<path class="st0" d="M19.86,9.44c0.07,0.11,0.1,0.16,0.1,0.25c-0.06-0.02-0.12-0.08-0.19-0.17l0.04,0.43
	c0.05-0.08,0.09-0.13,0.15-0.15c-0.01,0.28-0.13,0.39-0.22,0.41c-0.11,0.02-0.2-0.05-0.22-0.14c-0.02-0.12,0.08-0.2,0.19-0.09
	c0.02-0.26-0.19-0.25-0.28-0.14c0.11-0.25,0.06-0.41-0.16-0.54c-0.14,0.23-0.08,0.38,0.1,0.56c-0.17-0.09-0.32,0.06-0.17,0.25
	c0.03-0.16,0.18-0.13,0.21,0c0.03,0.11-0.08,0.26-0.26,0.31c-0.26,0.08-0.35-0.09-0.41-0.23c0.06-0.04,0.19-0.02,0.34,0.07
	l-0.13-0.42c-0.06,0.15-0.15,0.21-0.25,0.25c-0.01-0.12,0.08-0.37,0.08-0.37l-0.5,0.21c0,0,0.23,0.11,0.31,0.21
	c-0.11,0.04-0.21,0.06-0.36-0.01l0.2,0.39c0.04-0.17,0.13-0.28,0.2-0.29c0.05,0.15,0.11,0.33-0.13,0.45
	c-0.17,0.09-0.35,0.06-0.41-0.04c-0.07-0.12,0.01-0.24,0.15-0.15c-0.02-0.24-0.23-0.24-0.29-0.06c0-0.25-0.06-0.4-0.32-0.47
	c-0.06,0.25,0.02,0.4,0.27,0.5c-0.14-0.02-0.29,0.12-0.1,0.3c0-0.16,0.13-0.17,0.2-0.07c0.05,0.08,0.04,0.19-0.06,0.25
	c-0.08,0.05-0.24,0.05-0.45-0.14c0.06-0.02,0.13-0.01,0.22,0.01l-0.27-0.33c0.01,0.12,0.01,0.2-0.02,0.26
	c-0.06-0.07-0.08-0.12-0.1-0.25l-0.21,0.18c0.2,0.12,0.42,0.3,0.69,0.68c0.29-0.18,0.8-0.43,1.12-0.56
	c0.32-0.13,0.86-0.31,1.19-0.38c-0.07-0.46-0.04-0.75,0.02-0.97L19.86,9.44z"/>
<path class="st0" d="M20.44,11.87c-0.26,0.2-0.6,0.02-0.75-0.24c0.35-0.15,0.76-0.31,1.04-0.48C20.47,11.53,20.64,11.71,20.44,11.87
	 M20.38,14.53c-0.33,0.14-0.59-0.15-0.65-0.34c-0.06-0.2-0.12-0.36-0.04-0.44c0.14-0.14,0.19-0.25,0.1-0.43
	c-0.1-0.2-0.32-0.11-0.54-0.05c0.11-0.19,0.11-0.33-0.03-0.31c-0.18,0.02-0.18,0.3-0.28,0.27c-0.1-0.03-0.04-0.2-0.04-0.28
	c0-0.12,0.08-0.16,0.2-0.22l0.96-0.36c0.12-0.04,0.21-0.07,0.29,0.02c0.06,0.06,0.21,0.14,0.17,0.23c-0.05,0.09-0.25-0.11-0.39,0
	c-0.12,0.09-0.01,0.18,0.2,0.25c-0.21,0.12-0.43,0.2-0.36,0.42c0.06,0.18,0.17,0.23,0.37,0.23c0.11,0,0.19,0.16,0.28,0.34
	C20.71,14.04,20.73,14.38,20.38,14.53 M18.56,12.61c-0.26,0.02-0.25-0.22-0.7-0.33c0.32-0.06,0.73-0.22,1.08-0.36
	C19.01,12.21,18.89,12.58,18.56,12.61 M23.88,21.11c0.07-0.19-0.29-0.42-0.33-0.7c-0.04-0.28-0.01-0.55-0.33-0.93
	c-0.32-0.37-1.41-1.54-1.75-1.92c0.08-0.01,0.28-0.05,0.48,0.14c0.12,0.11,0.35,0.33,0.57,0.55c0.29-0.74,0.65-1.29,1.16-1.87
	c0.07-0.07,0.13-0.15,0.2-0.22c-0.19,0.06-0.48,0.1-0.65,0.21c-0.01-0.32,0.01-0.58-0.21-0.79c0.08-0.45,0.01-1-1-1.67
	c0.52,0.12,0.82,0.59,1.22,0.23c-0.35-0.01-0.36-0.78-1.64-1.43c0.49-0.01,0.87,0.78,1.44,0.33c-0.53-0.06-0.71-1.01-1.67-1.31
	c0.33,0.04,0.68,0.2,0.97-0.19c-0.33,0.08-0.53-0.23-0.89-0.26c0.14-0.42,0.1-0.67-0.04-0.98c-0.25,0.02-0.51,0.09-0.69,0.25
	c-0.03-0.23-0.27-0.24-0.48-0.22c0.01,0.1,0.06,0.24-0.05,0.26c-0.17,0.03-0.74,0.19-1.19,0.36c-0.44,0.17-0.95,0.49-1.09,0.59
	c-0.09,0.06-0.17-0.08-0.22-0.15c-0.16,0.13-0.31,0.3-0.19,0.48c-0.25,0.02-0.52,0.09-0.75,0.27c0,0.28,0.24,0.56,0.59,0.72
	c-0.59,0.59-0.06,1.14-0.58,1.65c0.74,0.03,0.61-1,0.98-1.14c-0.04,0.72-0.44,0.85-0.44,1.62c0,0.42,0.25,0.87,0.03,1.14
	c0.62-0.17,0.45-1.53,0.84-1.94c0.07,0.23,0.03,0.46-0.05,0.69c-0.22,0.63,0.02,1.5-0.31,1.79c0.63-0.06,0.7-1.07,1.22-1.44
	c-0.44,0.91-0.9,2.84-1.56,3.81c-1.07,1.44-1.7,3.21-2.68,3.21c-0.43,0-0.76-0.27-0.76-0.81c0-1.64,2.82-2.77,2.82-4.52
	c0-0.78-0.63-1.08-1.03-1.08c-0.27,0-0.59,0.13-0.86,0.36c-0.12-0.05-0.23-0.07-0.33-0.07c-0.99,0-0.73,1.79-1.6,1.77
	c0.34,0.19,0.94-0.18,1.29-0.68c-0.15,1.16-1.82,0.85-1.69,2.25c0.23-1.09,2.9-0.93,2.9-2.59c0-0.19-0.1-0.34-0.23-0.47
	c0.2-0.13,0.39-0.18,0.56-0.18c0.32,0,0.61,0.24,0.61,0.71c0,1.47-2.8,2.7-2.8,4.5c0,0.3,0.09,0.56,0.23,0.76
	c-0.2,0.08-0.4,0.04-0.57-0.15c-0.02,0.46,0.65,0.76,1.06,0.52c0.09,0.03,0.19,0.05,0.29,0.06c-0.13,0.34-0.55,0.45-0.78,0.43
	c0.69,0.54,1.88-0.17,1.82-0.78c0.54-0.44,0.89-1.19,1.29-1.69c-0.03,0.11-0.05,0.23-0.06,0.34c-0.4,0.73-0.78,1.38-0.88,2.35
	c-0.09,0.81-0.49,1.53-1.06,1.53c-0.12,0-0.33-0.16-0.42-0.08c-0.18,0.15-0.01,0.31-0.01,0.46c0,0.23-0.44,0.46-0.44,1.16
	c0,0.32,0.19,0.7,0.12,0.91c0.18-0.09,0.42-0.39,0.52-0.79c0.19,0.93-0.4,0.89,0.03,1.72c0.05-0.27,0.33-0.39,0.49-0.27
	c0.17,0.11,0.09,0.19-0.03,0.32c-0.12,0.12-0.24,0.74,0.33,0.71c-0.11-0.07-0.11-0.23,0.17-0.29c0.39-0.08,0.5,0.1,0.92,0.1
	c0.26,0,0.33-0.34,0.53-0.34c0.2,0,0.2,0.16,0.13,0.27c0.33-0.09,0.39-0.27,0.39-0.45c0-0.18-0.15-0.3-0.03-0.37
	c0.11-0.07,0.49,0.01,0.34,0.32c0.19-0.03,0.3-0.18,0.3-0.42c0-0.24-0.27-0.38-0.53-0.33c-0.04-0.15-0.26-0.23-0.47-0.23
	c-0.46,0-0.39,0.36-0.7,0.36c-0.5,0-0.99-0.65-0.99-1.76c0-0.59,0.64-0.74,1.09-0.94c0.45-0.19,1.24-0.68,1.71-1.47
	c0.37-0.62,0.38-1.3,0.33-2.11c0.64,0.36,0.71,0.89,0.71,1.27c0,0.49-0.26,0.69-0.46,0.78c-0.17,0.08-0.23,0.05-0.25,0.15
	c-0.02,0.13,0.06,0.2,0.14,0.24c0.23,0.12,0.18,0.34,0.25,0.57c0.07,0.24,0.28,0.61,0.63,0.89c0.04-0.15,0.03-0.38,0.01-0.69
	c0.49,0.24,0.1,1.22,1.04,1.22c-0.17-0.1-0.13-0.36-0.03-0.39c0.1-0.04,0.23,0.06,0.41,0.32c0.18,0.26,0.13,0.23,0.58,0.23
	c0.45,0,0.25-0.15,0.48-0.15c0.24,0,0.22,0.27,0.09,0.47c0.4-0.12,0.52-0.42,0.39-0.74c0.35-0.19,0.54,0.08,0.59,0.27
	c0.35-0.35,0-0.77-0.27-0.79c0.01-0.13-0.11-0.27-0.26-0.27c-0.15-0.01-0.29-0.02-0.45-0.01c-0.16,0.01-0.26,0.25-0.45,0.25
	c-0.59,0-1.77-1.08-1.77-1.54c0-0.47,1.12-0.75,1.12-1.47c0-0.94-0.93-1.26-1.71-1.87c0.28-0.31,1.09-0.39,1.55-0.16
	c0.05-0.26,0.22-0.2,0.28-0.65c0.17,0.4,0,0.74,0.16,0.91c0.13-0.19,0.47-0.16,0.45-0.66c0.1,0.31-0.13,0.78,0.1,0.99
	c0.04-0.25,0.19-0.3,0.29-0.3s0.18,0.07,0.18,0.22c0,0.38-0.46,0.2-0.46,0.63c0,0.18,0.23,0.24,0.23,0.36
	c0,0.11-0.19,0.29-0.41,0.14c0.08,0.16,0.22,0.31,0.42,0.31c0.21,0,0.43-0.16,0.51-0.38c0.11,0.27,0.03,0.57-0.17,0.61
	c0.21,0.1,0.69,0.01,0.64-0.62c0.28,0.05,0.42,0.23,0.25,0.57c0.23-0.05,0.43-0.17,0.43-0.41C24,21.41,23.8,21.35,23.88,21.11"/>
<path class="st0" d="M42.03,25.64c0-0.32,0.26-0.59,0.59-0.59c0.32,0,0.59,0.26,0.59,0.59c0,0.32-0.26,0.59-0.59,0.59
	C42.29,26.22,42.03,25.96,42.03,25.64 M41.83,25.64c0,0.44,0.36,0.79,0.79,0.79c0.43,0,0.79-0.35,0.79-0.79
	c0-0.44-0.35-0.79-0.79-0.79C42.18,24.84,41.83,25.2,41.83,25.64"/>
<path class="st0" d="M39.23,27.07c-0.23-0.04-0.38-0.21-0.35-0.37c0.01-0.08,0.07-0.13,0.11-0.16c0.09-0.06,0.22-0.09,0.35-0.06
	c0.21,0.04,0.36,0.19,0.36,0.34c0,0.01,0,0.03,0,0.04C39.67,27.01,39.46,27.11,39.23,27.07 M38.87,26.36
	c-0.11,0.07-0.18,0.18-0.2,0.29c-0.02,0.14,0.02,0.28,0.12,0.4c0.1,0.11,0.24,0.19,0.4,0.22c0.16,0.03,0.32,0.01,0.45-0.06
	c0.14-0.07,0.23-0.19,0.25-0.33c0.05-0.27-0.18-0.55-0.52-0.61C39.19,26.24,39.01,26.27,38.87,26.36"/>
<path class="st0" d="M34.47,15.72c0-0.1,0.06-0.22,0.17-0.3c0.09-0.07,0.2-0.1,0.3-0.09c0.04,0.01,0.11,0.02,0.15,0.08
	c0.04,0.06,0.04,0.12,0.04,0.16c-0.01,0.1-0.07,0.2-0.17,0.27c-0.15,0.12-0.36,0.13-0.45,0.01C34.48,15.82,34.47,15.77,34.47,15.72
	 M34.51,15.26c-0.25,0.19-0.32,0.51-0.16,0.72h0c0.16,0.2,0.49,0.21,0.73,0.02c0.13-0.1,0.22-0.25,0.24-0.4
	c0.01-0.12-0.01-0.23-0.08-0.31c-0.06-0.08-0.17-0.14-0.28-0.16C34.81,15.11,34.65,15.16,34.51,15.26"/>
<path class="st0" d="M38.25,26.15L38.25,26.15L38.25,26.15z M38.25,25.95L38.25,25.95c-0.08,0-0.14-0.04-0.18-0.08
	c-0.08-0.08-0.12-0.21-0.12-0.34c0-0.13,0.05-0.25,0.13-0.33c0.04-0.04,0.1-0.08,0.18-0.08c0.17,0,0.3,0.19,0.29,0.42
	c0,0.13-0.05,0.25-0.13,0.33C38.39,25.91,38.33,25.95,38.25,25.95 M37.94,25.05c-0.12,0.12-0.19,0.29-0.19,0.47v0.02
	c0,0.18,0.06,0.35,0.18,0.47c0.09,0.09,0.2,0.14,0.32,0.15c0.12,0,0.23-0.05,0.33-0.13c0.12-0.12,0.19-0.29,0.19-0.48
	c0-0.16-0.04-0.31-0.13-0.43c-0.09-0.12-0.22-0.19-0.36-0.2C38.15,24.91,38.04,24.96,37.94,25.05"/>
<path class="st0" d="M34.23,19.43c-0.21-0.1-0.31-0.3-0.24-0.46c0.03-0.07,0.1-0.11,0.15-0.13c0.11-0.04,0.24-0.03,0.36,0.03
	c0.12,0.06,0.21,0.15,0.25,0.26c0.02,0.05,0.03,0.12-0.01,0.2c-0.04,0.07-0.1,0.11-0.15,0.13C34.48,19.5,34.35,19.49,34.23,19.43
	 M34.07,18.66c-0.12,0.04-0.22,0.12-0.27,0.23c-0.12,0.25,0.03,0.58,0.34,0.73c0.17,0.08,0.35,0.09,0.51,0.04
	c0.12-0.04,0.22-0.12,0.27-0.23c0.05-0.11,0.06-0.23,0.01-0.35c-0.06-0.16-0.18-0.29-0.35-0.37C34.41,18.62,34.23,18.6,34.07,18.66"
	/>
<path class="st0" d="M39.81,22.26c-0.13,0.18-0.35,0.25-0.49,0.15s-0.15-0.33-0.03-0.52c0.13-0.18,0.35-0.25,0.5-0.15
	C39.93,21.85,39.94,22.08,39.81,22.26 M38.88,23.73c-0.13,0.18-0.35,0.25-0.5,0.15c-0.14-0.1-0.16-0.33-0.03-0.51
	c0.13-0.18,0.35-0.25,0.5-0.15C38.99,23.32,39,23.55,38.88,23.73 M35.68,15.67c0.11-0.34,0.32-1.02,0.32-1.02l0.36,0.14
	c-0.1,0.04-0.23,0.14-0.34,0.24c0.08,0.04,0.23,0.04,0.33-0.02l-0.14,0.36c-0.03-0.06-0.13-0.19-0.24-0.21
	c-0.07,0.29,0.11,0.4,0.24,0.47c0.22,0.11,0.36,0.13,0.42,0.03c0.07-0.12-0.07-0.3-0.26-0.22c-0.02-0.19,0.09-0.29,0.21-0.29
	c0.1,0,0.18,0.09,0.21,0.21c-0.01-0.31,0.12-0.54,0.41-0.63c0.1,0.3,0.02,0.5-0.21,0.71c0.12-0.05,0.25-0.04,0.31,0.04
	c0.07,0.1,0.04,0.25-0.12,0.34c-0.04-0.2-0.27-0.21-0.33-0.09c-0.06,0.13,0.03,0.25,0.24,0.36c0.23,0.13,0.42,0.05,0.55-0.15
	c-0.08-0.03-0.21-0.01-0.34,0.07l0.24-0.45c0.01,0.07,0.05,0.18,0.15,0.26c0.04-0.1,0.09-0.28,0.01-0.43l0.51,0.3
	c-0.17,0.02-0.3,0.15-0.37,0.23c0.12,0.04,0.24,0.02,0.3,0l-0.27,0.43c0-0.15-0.05-0.27-0.11-0.33c-0.11,0.21-0.09,0.41,0.14,0.55
	c0.2,0.12,0.35,0.14,0.43,0.03c0.08-0.12-0.05-0.31-0.24-0.24c-0.01-0.19,0.1-0.28,0.23-0.28c0.1,0.01,0.17,0.12,0.19,0.24
	c0.07-0.3,0.21-0.48,0.51-0.53c0.06,0.29-0.07,0.53-0.35,0.67c0.12-0.04,0.24-0.02,0.29,0.07c0.06,0.11,0.03,0.25-0.15,0.33
	c-0.02-0.2-0.25-0.24-0.32-0.12c-0.06,0.1,0.03,0.22,0.24,0.35c0.13,0.08,0.31,0.18,0.53-0.02c-0.07-0.08-0.24-0.1-0.3-0.1l0.24-0.3
	c-0.01,0.12,0.07,0.24,0.14,0.29c0.04-0.15,0.06-0.31,0.04-0.42l0.3,0.24c0,0-0.49,0.52-0.73,0.79L35.68,15.67z M39.55,20.07
	c0-0.05,0.02-0.12,0.08-0.18c0.06-0.06,0.13-0.07,0.18-0.07c0.11,0,0.23,0.06,0.32,0.16c0.09,0.1,0.14,0.22,0.14,0.33
	c0,0.05-0.02,0.12-0.08,0.18l0,0c-0.06,0.06-0.13,0.07-0.19,0.06c-0.11,0-0.23-0.06-0.32-0.16C39.6,20.3,39.55,20.18,39.55,20.07
	 M40.97,26.59c0.02-0.11,0.1-0.22,0.21-0.29c0.11-0.07,0.24-0.1,0.35-0.08c0.05,0.01,0.12,0.04,0.17,0.11v0
	c0.04,0.07,0.04,0.14,0.03,0.19c-0.02,0.11-0.1,0.22-0.21,0.29c-0.19,0.12-0.42,0.11-0.51-0.03C40.96,26.71,40.96,26.64,40.97,26.59
	 M34.22,16.76c-0.01,0.11-0.05,0.22-0.12,0.28c-0.03,0.03-0.08,0.06-0.15,0.06c-0.13-0.01-0.24-0.16-0.24-0.34c0-0.01,0-0.02,0-0.03
	c0-0.11,0.05-0.21,0.12-0.28c0.03-0.03,0.09-0.06,0.15-0.06c0.07,0,0.12,0.04,0.14,0.08C34.2,16.54,34.23,16.65,34.22,16.76
	 M36.31,12.48c0.11-0.21,0-0.53,0.39-0.53c0.19,0,0.36,0.19,0.59,0.26C36.91,12.24,36.58,12.32,36.31,12.48 M42.39,17.84
	c0.26,0.71,0.77,0.96,1.16,0.78c-0.87-0.1-0.17-1.6-1.29-1.6c-0.06,0-0.12,0.01-0.18,0.02c-0.19-0.2-0.41-0.28-0.73-0.28
	c-0.48,0-1.29,0.46-1.29,1.41c0,2.04,2.37,2.22,2.37,4.03c0,0.53-0.4,0.85-0.84,0.85c-0.4,0-0.72-0.45-1.06-1.15
	c-0.16-0.33-0.5-0.79-0.87-1.27c0.11,0.08,0.23,0.12,0.35,0.12c0.13,0,0.24-0.04,0.33-0.12c0.08-0.08,0.13-0.19,0.14-0.32V20.3
	c0-0.16-0.07-0.33-0.19-0.46c-0.13-0.14-0.3-0.22-0.47-0.22c-0.13,0-0.24,0.04-0.33,0.12c-0.08,0.08-0.14,0.19-0.14,0.32v0.02
	c0,0.07,0.01,0.14,0.04,0.21c-0.51-0.67-0.99-1.32-0.99-1.68c0-0.32,0.22-0.59,0.49-0.93c0.01,0.01,0.09,0.05,0.09,0.05l0.07-0.08
	c0.1-0.11,0.29-0.32,0.7-0.76l0.02-0.03l0,0l0.1-0.1l-0.25-0.21c0.07-0.15,0.12-0.32,0.17-0.5c0.08,0.33,0.25,0.54,0.48,0.47
	c-0.15-0.34,0.16-0.79-0.05-1.62c0.19,0.32,0.47,0.49,0.67,0.43c-0.52-0.47,0.16-1.12-0.53-2.12c0.22,0.08,0.37,0.03,0.47-0.08
	c-0.62-0.09-0.34-0.89-1.43-1.17c0.27-0.05,0.43-0.21,0.39-0.35c-0.29,0.21-0.54-0.39-1.49-0.37c-0.06-0.35-0.39-0.73-0.76-0.91
	c0.07,0.28,0,0.52-0.07,0.73l-3.09-3.04c-0.09-0.09-0.14-0.11-0.16-0.07C34.2,7.98,34.2,8.04,34.26,8.1l2.65,3.33
	c-0.2,0.07-0.4,0.15-0.6,0.23c-0.13,0.05-0.23,0.18-0.23,0.34c-0.49,0.25-0.92,0.55-1.14,0.74c-0.16,0.15-0.29,0.18-0.15,0.52
	c0.06,0.13-0.11,0.44,0.27,0.21c0.25-0.15,0.82-0.47,0.91-0.27c0.05,0.1-0.24,0.24-0.43,0.31c-0.19,0.08-0.4,0.22-0.37,0.3
	c0.03,0.07,0.18-0.01,0.19,0.07c0.01,0.09,0.07,0.17,0.15,0.17c0.08,0,0.18-0.16,0.24-0.11c0.06,0.05-0.03,0.42-0.09,0.51
	c0.3-0.04,0.49-0.32,0.5-0.55c0.01-0.22,0.07-0.28,0.11-0.31c0.05-0.03,0.1,0.24,0.04,0.4c0.16-0.03,0.32-0.24,0.3-0.63
	c0.08-0.06,0.16-0.11,0.22-0.11c0.1,0,0.3,0.28,0.59,0.28c0.53,0,0.82-0.43,0.85-0.63c0.03-0.16,0.01-0.32-0.07-0.44
	c0.19,0.15,0.25,0.39,0.25,0.57c0,0.74-1.32,1.09-1.86,1.61c-0.02,0.02-0.04,0.04-0.06,0.05l-0.62-0.24l-0.04,0.14
	c0,0.01-0.01,0.03-0.04,0.12c-0.06,0.21-0.2,0.65-0.28,0.91c0,0-0.03,0.1-0.03,0.1l0.06,0.03c-0.37,0.49-0.66,1.03-0.73,1.59
	c-0.15-0.15-0.29-0.28-0.45-0.41c0.02-0.05,0.03-0.11,0.03-0.17c0.01-0.17-0.04-0.33-0.14-0.44c-0.08-0.09-0.18-0.14-0.28-0.14
	c-0.11-0.01-0.21,0.03-0.3,0.11c-0.02,0.02-0.04,0.04-0.05,0.06c-0.02-0.02-0.04-0.03-0.07-0.05c-0.2-0.16-0.46-0.34-0.61-0.51
	c-0.06-0.07-0.13-0.11-0.27-0.11c-0.05,0-0.18-0.01-0.28-0.01c-0.09,0-0.14,0.07-0.25,0.16c-0.05,0.04-0.19,0.15-0.35,0.28
	c0.08,0.08,0.15,0.16,0.22,0.24c0.04,0.04,0.08,0.09,0.12,0.14c0.04-0.03,0.08-0.06,0.11-0.08c0.06-0.05,0.15-0.07,0.23-0.07
	c0.08,0,0.19,0.06,0.27,0.18c0.06,0.08,0.56,0.74,0.97,1.2c-0.05,0.02-0.09,0.03-0.13,0.05c-0.18,0.07-0.58,0.06-0.75,0.04
	c-0.18-0.02-0.21-0.06-0.33,0.13c-0.05,0.07-0.1,0.16-0.16,0.23c-0.06,0.07-0.11,0.16,0.02,0.37c0.18,0.31,0.64,1.12,0.79,1.49
	c0.15,0.37,0.33,0.42,0.61,0.54c0.29,0.12,0.78,0.4,0.84,0.47l0.02-0.28c-0.08-0.09-0.36-0.19-0.46-0.23
	c-0.1-0.04-0.13-0.08-0.01-0.08c0.12,0,0.47,0.12,0.71,0.22c-0.07-0.27-0.34-0.58-0.49-0.75c-0.21-0.06-0.42-0.06-0.5,0.01
	c0.01,0.06-0.03,0.13-0.12,0.13c-0.08,0-0.14-0.07-0.11-0.14c0.03-0.08,0.15-0.11,0.12-0.27c-0.03-0.16-0.22-0.18-0.35-0.2
	c-0.18-0.26-0.38-0.63-0.47-0.78s-0.04-0.24,0.03-0.29c0.15-0.12,0.47,0.07,1.09,0.11c0.22,0.01,0.5,0.03,0.78,0.04
	c0.08,0.73,0.38,1.42,1.39,1.68c0.5,0.12,1.01,0.49,1.18,0.96c-2.03-0.04-2.35,0.75-2.35,1.5c0,0.85,0.72,0.8,0.72,1.44
	c0,0.55-1.71,0.78-2.22,0.86c-0.44,0.06-0.69,0.16-0.9,0.37c-0.21,0.21-0.42,0.41-0.8,0.79c0,0,0.16,0.04,0.32,0.03l0.29-0.37
	c0.09-0.12,0.14-0.23,0.2-0.22c0.06,0.01,0.02,0.1-0.05,0.24l-0.24,0.4c1,0.07,1.07-0.3,1.07-0.46c0-0.15-0.25-0.26-0.1-0.35
	c0.14-0.1,0.27-0.03,0.38,0.1c0.11,0.13,0.15,0.25,0.43,0.14c0,0,2.18-0.91,2.46-1.03c0.25-0.11,0.18-0.22,0.03-0.34
	c-0.16-0.13-0.19-0.35-0.19-0.58c0-0.66,0.4-0.86,1.11-0.85c-0.01,0.11-0.02,0.22-0.02,0.32c0,1.03,1.56,2.04,1.98,2.04
	c0.19,0,0.44-0.14,0.46,0.48c0.01,0.46,0.1,0.78,0.02,1.31c-0.08,0.53-0.24,0.61-0.55,0.83c-0.32,0.22-0.62,0.92-0.75,1.07
	c0.14,0.09,0.29,0.1,0.41-0.24c0.1-0.28,0.21-0.48,0.33-0.55c-0.12,0.31-0.21,0.76-0.27,0.9c0.4,0.07,1.04-0.29,1.04-0.57
	s-0.22-0.26-0.22-0.45c0-0.08,0.1-0.17,0.22-0.17c0.16,0,0.28,0.13,0.29,0.19c0.18-0.09,0.29-0.27,0.28-0.68
	c0-0.16-0.01-0.33-0.02-0.5c0.01,0.02,0.02,0.04,0.04,0.07c0.08,0.12,0.2,0.19,0.36,0.2c0.15,0.01,0.3-0.03,0.44-0.12
	c0.16-0.1,0.26-0.26,0.3-0.42c0.01-0.03,0.01-0.07,0.01-0.1c0-0.09-0.03-0.17-0.07-0.24c-0.06-0.1-0.17-0.17-0.29-0.19
	c-0.16-0.03-0.35,0.01-0.5,0.11c-0.15,0.1-0.25,0.23-0.29,0.38c-0.03-0.56-0.07-1.09-0.06-1.3c0.02-0.32,0.04-0.46-0.07-0.5
	c-0.1-0.05-0.22,0.13-0.37,0.13c-0.15,0-0.61-0.42-0.61-0.87c0-0.45,0.48-1.02,0.46-1.63c-0.01-0.19,0.11-0.29,0.19-0.12
	c0.09,0.21,0.23,0.49,0.44,0.72c-0.13,0.77,0.72,1.52,1.41,0.96c-0.34,0.05-0.58-0.26-0.73-0.56c0.06,0.01,0.12,0.02,0.19,0.02
	c0.03,0,0.07,0,0.1,0c0.24,0.3,1.02,0.28,1.22-0.47c-0.14,0.16-0.42,0.27-0.62,0.25c0.29-0.23,0.44-0.6,0.44-0.99
	c0-1.95-2.36-2.17-2.36-3.94c0-0.66,0.57-1.08,0.97-1.08c0.15,0,0.27,0.05,0.37,0.12c-0.15,0.16-0.23,0.39-0.22,0.68
	c0.06,1.4,2.35,1.33,2.38,2C44.15,18.89,42.45,19.21,42.39,17.84"/>
</svg>
